<?xml version="1.0" encoding="utf-8"?>
<!-- Generator: Adobe Illustrator 15.1.0, SVG Export Plug-In . SVG Version: 6.00 Build 0)  -->
<!DOCTYPE svg PUBLIC "-//W3C//DTD SVG 1.1//EN" "http://www.w3.org/Graphics/SVG/1.1/DTD/svg11.dtd">
<svg version="1.1" id="Calque_1" xmlns="http://www.w3.org/2000/svg" xmlns:xlink="http://www.w3.org/1999/xlink" x="0px" y="0px"
	 width="232.5px" height="232.5px" viewBox="0 0 232.5 232.5" enable-background="new 0 0 232.5 232.5" xml:space="preserve">
<path fill="#F9BA48" d="M180,116.25c0,35.207-28.543,63.75-63.75,63.75S52.5,151.457,52.5,116.25S81.043,52.5,116.25,52.5
	S180,81.043,180,116.25"/>
<path fill="#161616" d="M63.75,105C28.598,105,0,133.598,0,168.75c0,35.153,28.598,63.75,63.75,63.75s63.75-28.597,63.75-63.75
	C127.5,133.598,98.902,105,63.75,105 M63.75,225C32.734,225,7.5,199.766,7.5,168.75c0-31.015,25.234-56.25,56.25-56.25
	S120,137.735,120,168.75C120,199.766,94.766,225,63.75,225"/>
<path fill="#161616" d="M232.5,22.5h-21.027c3.66-2.105,6.027-5.996,6.027-10.426C217.5,5.414,212.086,0,205.426,0
	c-5.156,0-10.215,1.774-14.239,4.996L180,13.946l-11.191-8.954C164.781,1.774,159.727,0,154.574,0
	c-6.66,0-12.074,5.414-12.074,12.074c0,4.434,2.367,8.325,6.027,10.426H127.5v30h11.25v63.75h82.5V52.5h11.25V22.5z M183.75,30v15
	h-7.5V30h3.336L180,30.09l0.414-0.09H183.75z M195.879,10.848c2.699-2.16,6.09-3.348,9.547-3.348c2.523,0,4.574,2.051,4.574,4.574
	c0,2.161-1.473,3.997-3.582,4.465l-24.438,5.43L195.879,10.848z M154.574,7.5c3.457,0,6.848,1.188,9.547,3.348l13.898,11.121
	l-24.438-5.43c-2.109-0.468-3.582-2.308-3.582-4.465C150,9.551,152.051,7.5,154.574,7.5 M135,30h33.75v15H135V30z M146.25,52.5h22.5
	v56.25h-22.5V52.5z M176.25,52.5h7.5v56.25h-7.5V52.5z M213.75,108.75h-22.5V52.5h22.5V108.75z M225,45h-33.75V30H225V45z"/>
<path fill="#161616" d="M98.312,35.727l-1.624-7.321c-33.95,7.532-60.75,34.332-68.282,68.282l7.324,1.621
	C42.629,67.196,67.195,42.629,98.312,35.727"/>
<path fill="#161616" d="M134.188,196.77l1.624,7.324c33.95-7.535,60.747-34.332,68.282-68.28l-7.324-1.625
	C189.871,165.305,165.305,189.871,134.188,196.77"/>
<path fill="#161616" d="M95.006,153.626l-17.756-1.204l-6.631-16.515c-1.198-2.981-4.047-4.907-7.26-4.907s-6.062,1.927-7.259,4.907
	l-6.632,16.515l-17.756,1.204c-3.205,0.218-5.917,2.332-6.91,5.388s-0.042,6.36,2.424,8.42l13.657,11.411l-4.342,17.259
	c-0.783,3.115,0.389,6.349,2.988,8.237c2.599,1.888,6.037,2.004,8.757,0.296l15.073-9.463l15.073,9.463
	c1.282,0.805,2.723,1.205,4.161,1.205c1.613,0,3.222-0.503,4.596-1.501c2.599-1.889,3.772-5.122,2.988-8.237l-4.341-17.259
	l13.656-11.411c2.466-2.06,3.417-5.364,2.425-8.42C100.924,155.958,98.211,153.843,95.006,153.626 M95.633,162.814l-15.107,12.623
	c-0.886,0.74-1.27,1.923-0.989,3.043l4.803,19.092c0.269,1.067-0.393,1.684-0.689,1.898c-0.297,0.216-1.088,0.653-2.019,0.068
	l-16.673-10.467c-0.978-0.614-2.222-0.614-3.2,0l-16.673,10.467c-0.932,0.586-1.723,0.147-2.019-0.068
	c-0.297-0.215-0.957-0.831-0.689-1.898l4.803-19.091c0.282-1.121-0.102-2.304-0.989-3.044l-15.107-12.622
	c-0.844-0.706-0.672-1.593-0.559-1.942c0.113-0.349,0.495-1.167,1.593-1.241L51.76,158.3c1.153-0.078,2.159-0.81,2.589-1.882
	l7.336-18.268c0.41-1.021,1.307-1.131,1.674-1.131c0.366,0,1.263,0.11,1.673,1.132l7.336,18.267
	c0.431,1.072,1.437,1.804,2.589,1.882l19.641,1.332c1.098,0.074,1.48,0.894,1.594,1.242
	C96.305,161.223,96.477,162.109,95.633,162.814"/>
</svg>
