<?xml version="1.0" encoding="UTF-8"?>
<svg id="Calque_2" data-name="Calque 2" xmlns="http://www.w3.org/2000/svg" viewBox="0 0 465.65 310.23">
  <defs>
    <style>
      .cls-1 {
        fill: #c9c76b;
        stroke-width: 8px;
      }

      .cls-1, .cls-2, .cls-3, .cls-4, .cls-5 {
        stroke-miterlimit: 10;
      }

      .cls-1, .cls-4 {
        stroke: #ad8249;
      }

      .cls-2 {
        fill: #ede8da;
        stroke: #e8ddbf;
      }

      .cls-2, .cls-3 {
        stroke-width: 17px;
      }

      .cls-3 {
        fill: #dd9292;
        stroke: #d63c3c;
      }

      .cls-4 {
        fill: #ad8249;
      }

      .cls-4, .cls-5 {
        stroke-width: 5px;
      }

      .cls-5 {
        fill: #825b48;
        stroke: #4c4025;
      }

      .cls-6 {
        fill: #e0dc90;
      }
    </style>
  </defs>
  <g id="Dessous">
    <path class="cls-4" d="M17.69,200.37c-19.95,26.74,108,125.99,242.8,104.27,144.53-23.29,216.35-141.74,199-163-17.35-21.26-412.48,19.42-441.8,58.73Z"/>
  </g>
  <g id="Garniture">
    <g>
      <path class="cls-5" d="M36.44,258.4s-3.95-1.76-8.95-1.76h-10c-2.5-1.5-12.5-3.5-10-10,0,0,0-5,3.45-11.55,7.05-8.95,4.05-24.95,15.05-28.95,6-2,6,9,9.77,14.15,2.4,1.64,4.76,3.25,6.92,5.03,4.31,3.56,7.81,7.81,10.31,12.81,3,5-1,9-5.64,11.19-1.86,1.54-2.86,4.77-5.36,7.72-1.55,1.88-3.52,2.47-5.54,1.35Z"/>
      <path class="cls-5" d="M45.95,247.15s3.44-2.63,5.84-7.01l4.79-8.78c2.51-1.47,9.06-9.29,13.57-3.98,0,0,4.39,2.4,8.48,8.56,4.47,10.48,19.95,15.52,18.19,27.09-1.12,6.22-10.77,.95-17.11,1.79-2.59,1.32-5.14,2.62-7.73,3.66-5.19,2.08-10.6,3.11-16.19,2.91-5.83,.24-7.42-5.19-7.11-10.31-.46-2.37-2.81-4.8-4.21-8.41-.9-2.26-.48-4.27,1.47-5.51Z"/>
      <path class="cls-5" d="M114.33,282.02s-2.21-3.72-6.28-6.62l-8.15-5.79c-1.17-2.67-8.17-10.09-2.37-13.94,0,0,2.89-4.08,9.5-7.42,10.93-3.22,17.74-18,29.03-14.89,6.05,1.84-.32,10.81-.22,17.2,1.01,2.73,2,5.41,2.73,8.11,1.45,5.4,1.85,10.89,.99,16.42-.45,5.81-6.02,6.76-11.07,5.86-2.41,.18-5.09,2.23-8.84,3.19-2.35,.63-4.3-.02-5.3-2.11Z"/>
      <path class="cls-5" d="M189.18,270.15s-2.68,3.4-3.92,8.24l-2.47,9.69c-2.07,2.05-6.48,11.25-12.16,7.22,0,0-4.85-1.23-10.34-6.19-6.93-9.04-23.17-10.09-24.33-21.73-.46-6.31,10.2-3.59,16.13-5.97,2.18-1.92,4.33-3.81,6.59-5.46,4.52-3.3,9.5-5.64,14.96-6.83,5.59-1.67,8.47,3.19,9.45,8.23,1.03,2.18,3.91,3.95,6.16,7.1,1.43,1.97,1.53,4.02-.06,5.71Z"/>
      <path class="cls-5" d="M181.17,244.76s3.76-2.14,6.73-6.16l5.94-8.05c2.69-1.12,10.24-7.98,13.98-2.11,0,0,4.02,2.97,7.25,9.63,3.02,10.99,17.67,18.07,14.36,29.3-1.95,6.02-10.8-.51-17.19-.54-2.75,.96-5.44,1.9-8.16,2.58-5.43,1.36-10.92,1.65-16.43,.69-5.8-.55-6.65-6.15-5.66-11.18-.13-2.41-2.14-5.13-3.03-8.9-.59-2.36,.1-4.3,2.2-5.26Z"/>
      <path class="cls-5" d="M258.47,269.18s-4.28,.64-8.5,3.32l-8.44,5.37c-2.91,.08-12.42,3.76-13.81-3.07,0,0-2.69-4.22-3.29-11.6,1.14-11.34-9.98-23.22-2.85-32.5,3.99-4.91,9.89,4.37,15.84,6.69,2.91,.09,5.76,.19,8.54,.53,5.55,.69,10.79,2.39,15.58,5.27,5.22,2.61,3.99,8.13,1.25,12.47-.74,2.3,.15,5.56-.38,9.39-.3,2.42-1.64,3.97-3.95,4.12Z"/>
      <path class="cls-5" d="M294.68,232.91s.55,4.29,3.15,8.56c2.6,4.27,5.2,8.54,5.2,8.54,.02,2.92,3.51,12.5-3.34,13.74,0,0-4.27,2.6-11.66,3.06-11.31-1.37-23.42,9.51-32.55,2.2-4.83-4.09,4.57-9.8,7.01-15.71,.15-2.9,.3-5.76,.7-8.52,.8-5.54,2.61-10.74,5.58-15.47,2.71-5.16,8.21-3.83,12.49-1,2.28,.79,5.56-.03,9.39,.57,2.41,.35,3.94,1.72,4.04,4.03Z"/>
      <path class="cls-5" d="M297.8,232.54s4.29-.6,8.52-3.26l8.48-5.3c2.91-.05,12.45-3.66,13.78,3.17,0,0,2.65,4.24,3.2,11.62-1.23,11.33,9.8,23.3,2.59,32.52-4.03,4.88-9.86-4.45-15.79-6.82-2.91-.11-5.76-.23-8.53-.6-5.55-.73-10.77-2.48-15.54-5.39-5.2-2.65-3.93-8.16-1.15-12.48,.76-2.29-.1-5.56,.45-9.39,.32-2.41,1.67-3.96,3.98-4.08Z"/>
      <path class="cls-5" d="M360.63,262.17s-4.26-.74-9.11,.49l-9.69,2.45c-2.79-.84-12.98-.33-12.15-7.24,0,0-1.23-4.85,.51-12.04,4.64-10.4-2.19-25.18,7.49-31.75,5.33-3.41,8.02,7.25,12.94,11.33,2.73,1,5.41,1.99,7.94,3.18,5.05,2.4,9.49,5.66,13.14,9.89,4.13,4.11,1.24,8.97-2.72,12.23-1.43,1.95-1.61,5.32-3.31,8.8-1.04,2.2-2.8,3.26-5.04,2.67Z"/>
      <path class="cls-5" d="M401.03,204.28s.47,4.3,2.99,8.62l5.04,8.64c-.04,2.92,3.27,12.56-3.6,13.67,0,0-4.32,2.52-11.72,2.84-11.28-1.59-23.59,9.06-32.59,1.57-4.75-4.18,4.75-9.72,7.31-15.57,.21-2.9,.41-5.75,.87-8.51,.91-5.52,2.82-10.68,5.88-15.36,2.81-5.11,8.28-3.67,12.51-.76,2.27,.83,5.56,.07,9.37,.74,2.4,.4,3.91,1.79,3.96,4.11Z"/>
      <path class="cls-2" d="M8.5,191.94c0-32.65,89.6-18.46,97.04-9.12,7.44,9.35,38.15,3.45,50.87-4.78,12.72-8.23,60.71-15.29,71.58-9.51,10.87,5.78,50.59-.51,71.53-6.72,20.95-6.21,35.57-21.59,55.83-14.48,20.25,7.11,11.88,10.41,27.28,5.19,15.4-5.21,69.43-13.85,73.86,15.13,4.43,28.99-13.93,123.46-41,123.99-27.07,.53-1-62-36.8-72.21-21.97-6.27-47.2,27.21-74.32,32.09-27.22,4.9-44.56-20.14-66.85-18.98-40.03,2.1-50.03,29.1-92.73,30.95-29.72,1.29-45.3-23.86-80.56-23.57-13.04,.11-55.73-15.86-55.73-48Z"/>
      <ellipse class="cls-3" cx="94.99" cy="185.64" rx="40" ry="81.5" transform="translate(-108.36 231.84) rotate(-75.7)"/>
      <ellipse class="cls-3" cx="229.99" cy="171.64" rx="81.5" ry="40" transform="translate(-28.54 47.06) rotate(-11.01)"/>
      <ellipse class="cls-3" cx="361.99" cy="158.64" rx="40" ry="81.5" transform="translate(168.74 503.4) rotate(-84.39)"/>
    </g>
  </g>
  <g id="Dessus">
    <path class="cls-1" d="M215.49,5.64c152.01-18.12,250.43,119.19,244,136-13,34-412,86-452,45C-11.48,167.2,64.49,23.64,215.49,5.64Z"/>
    <path class="cls-6" d="M367.99,55.14C293.99-2.86,121.38,4.06,37.99,129.14,0,186.14,93.99,97.7,202.99,84.92s206,29.22,233,39.22c0,0-19.76-31.19-68-69Z"/>
  </g>
</svg>