<?xml version="1.0" encoding="UTF-8"?>
<svg id="Calque_2" data-name="Calque 2" xmlns="http://www.w3.org/2000/svg" viewBox="0 0 466.02 310.23">
  <defs>
    <style>
      .cls-1 {
        fill: #c9c76b;
        stroke-width: 8px;
      }

      .cls-1, .cls-2, .cls-3, .cls-4 {
        stroke-miterlimit: 10;
      }

      .cls-1, .cls-4 {
        stroke: #ad8249;
      }

      .cls-5 {
        fill: #ce9b51;
      }

      .cls-2 {
        fill: #f7d27f;
        stroke: #ceaa51;
      }

      .cls-2, .cls-3 {
        stroke-width: 17px;
      }

      .cls-3 {
        fill: #57992c;
        stroke: #a7dd99;
      }

      .cls-6 {
        fill: #d8a664;
      }

      .cls-4 {
        fill: #ad8249;
        stroke-width: 5px;
      }

      .cls-7 {
        fill: #e0dc90;
      }
    </style>
  </defs>
  <g id="Dessous">
    <path class="cls-4" d="M17.69,200.37c-19.95,26.74,108,125.99,242.8,104.27,144.53-23.29,216.35-141.74,199-163-17.35-21.26-412.48,19.42-441.8,58.73Z"/>
  </g>
  <g id="Garniture">
    <path id="Sauce_fromage" data-name="Sauce/fromage" class="cls-2" d="M8.5,191.94c0-32.65,89.6-18.46,97.04-9.12,7.44,9.35,38.15,3.45,50.87-4.78,12.72-8.23,60.71-15.29,71.58-9.51,10.87,5.78,50.59-.51,71.53-6.72,20.95-6.21,35.57-21.59,55.83-14.48,20.25,7.11,11.88,10.41,27.28,5.19,15.4-5.21,84.05-12.36,73.86,15.13-10,26.99-10,34.99-32,45.99-24.22,12.11-28.2,10.21-64,0-21.97-6.27-30.88,17.12-58,22-27.22,4.9-41.71,5.83-64,7-40.03,2.1-50.3-12.86-93-11-29.72,1.29-57.74,5.71-93,6-13.04,.11-43.98-13.57-43.99-45.71Z"/>
    <g id="Salade">
      <path class="cls-3" d="M62.96,163.71c22.53-11.07,24.53,6.93,45.53,12.93s10,19.24,0,30.12-23.77-13.88-40.89,0-23.11,5.33-20.61-12.39,16.5-30.73-3.5-37.73,9,39,20,7"/>
      <path class="cls-3" d="M160.98,194.47c1.59,25.05-15.8,20-29.39,37.1-13.59,17.1-21.6,1.86-27.82-11.55-6.22-13.41,21.93-16.64,15.67-37.76-6.26-21.13,3.93-23.39,19.35-14.29,15.41,9.1,22.05,27.02,36.19,11.23,14.13-15.79-39.47-6.64-14.13,15.79"/>
      <path class="cls-3" d="M168.08,208.83c-10.49-22.81,7.55-24.35,14.08-45.19,6.53-20.84,19.49-9.51,30.11,.77s-14.48,23.41-1.04,40.87c13.44,17.46,4.74,23.24-12.91,20.29s-30.3-17.28-37.8,2.54c-7.51,19.82,39.22-8,7.51-19.82"/>
      <path class="cls-3" d="M232.68,176.68c19.52-15.78,25.46,1.33,47.26,2.54,21.81,1.21,14.01,16.55,6.66,29.37s-26.26-8.28-39.87,9.05c-13.62,17.32-21.36,10.31-22.84-7.53-1.48-17.84,9.29-33.61-11.76-36.02-21.05-2.4,17.4,36.04,21.05,2.4"/>
      <path class="cls-3" d="M361.29,179.86c.22,25.1-16.87,19.11-31.37,35.44-14.5,16.33-21.67,.68-27.15-13.04s22.81-15.42,17.71-36.85c-5.1-21.44,5.2-23.14,20.1-13.21,14.89,9.93,20.55,28.18,35.52,13.18,14.97-15-39.05-8.78-14.97,15"/>
      <path class="cls-3" d="M402.34,144.64c24.33,6.18,14.18,21.18,26.28,39.37,12.1,18.19-4.86,21.13-19.53,22.93s-9.1-25.98-31.13-26.51c-22.03-.53-21.05-10.93-7.65-22.8,13.4-11.87,32.49-12.69,21.8-30.99-10.69-18.3-18.44,35.52,10.69,18.3"/>
    </g>
    <g id="Escargot">
      <g>
        <path class="cls-6" d="M124.37,199.49c.25,1.13,.54,2.26,.73,3.4,.58,3.57,.73,7.16,.62,10.77-.08,2.75-.28,5.48-1.03,8.15-.58,2.08-1.86,3.61-3.56,4.87-1.66,1.23-3.59,1.53-5.56,1.84-3.22,.5-6.46,.68-9.72,.68-4.11,0-8.2-.32-12.27-.93-2.11-.32-4.2-.75-6.3-1.11-.21-.04-.48,.03-.66,.14-3.65,2.19-7.52,3.57-11.83,3.76-4.95,.22-9.59-.76-14.03-2.92-4.46-2.17-8.15-5.25-11.14-9.21-2.22-2.95-3.85-6.19-4.89-9.73-.7-2.41-1.14-4.87-1.19-7.39,0-.15,.05-.3,.07-.45,.2-.19,.4-.38,.59-.58,.78-.81,1.56-1.62,2.34-2.43,.15-.14,.31-.28,.46-.41,0,.28,.01,.56,0,.83-.08,3.24,.06,6.46,.93,9.62,1.19,4.33,3.35,8.12,6.48,11.33,2.53,2.59,5.48,4.58,8.85,5.96,4.27,1.75,8.68,2.42,13.26,1.84,3.99-.51,7.58-2,10.65-4.62,1.02-.88,1.98-1.86,2.85-2.89,1.54-1.8,2.62-3.88,3.41-6.11,1.08-3.07,1.32-6.22,1.02-9.45-.26-2.78-1.37-5.24-2.9-7.5-1.28-1.88-3.01-3.3-4.98-4.44-3.33-1.93-6.92-2.64-10.69-2.04-4.16,.66-7.23,2.98-9.17,6.75-1.15,2.24-1.42,4.63-1.25,7.1,.17,2.4,1.22,4.4,2.94,6.04,1.57,1.51,3.47,2.35,5.63,2.6,3.24,.37,6.36-.83,7.93-3.91,.89-1.75,1.21-3.62,.5-5.5-.82-2.16-2.54-3.36-4.74-3.82-2.11-.44-3.88,.58-4.54,2.56-.23,.68-.26,1.43-.43,2.14-.21,.83-.94,1.26-1.85,1.14-.79-.11-1.3-.7-1.34-1.53-.14-3.37,2.33-6.16,5.21-7.12,3.26-1.09,6.19-.4,8.59,2.11,2.29,2.4,3.31,5.24,2.68,8.55-.44,2.29-1.6,4.19-3.31,5.78-3.65,3.4-8.34,3.69-12.33,2.07-2.35-.96-4.2-2.62-5.75-4.6-2.64-3.36-3.22-7.17-2.29-11.24,.84-3.69,2.89-6.68,5.79-9.06,3.48-2.85,7.49-3.99,11.96-3.56,3.51,.34,6.69,1.59,9.51,3.67,1.98,1.46,3.7,3.24,5.1,5.26,1.83,2.65,2.68,5.67,2.92,8.86,.29,3.85-.21,7.6-1.59,11.21-1.14,2.96-2.88,5.54-5.09,7.81-.15,.16-.28,.34-.48,.57,.59,.11,1.1,.2,1.61,.29,3.2,.58,6.43,1.01,9.68,1.07,2.94,.06,5.88,.05,8.81-.13,2.3-.14,4.59-.5,6.87-.89,2.23-.38,3.52-1.84,4.05-3.99,.68-2.74,.78-5.54,.84-8.34,.08-3.87-.09-7.72-.94-11.51-.08-.34-.08-.7-.12-1.06,.55-.55,1.11-1.1,1.66-1.65,.03,0,.06,0,.1,0,.44,.45,.89,.9,1.33,1.35Z"/>
        <path class="cls-6" d="M123.03,198.14s-.06,0-.1,0c-.49-.49-.97-.97-1.46-1.46-.52-.52-1.05-1.05-1.57-1.57-.09-.17-.21-.32-.27-.5-.8-2.26-1.79-4.44-2.94-6.55-2.01-3.67-4.5-6.97-7.54-9.84-1.84-1.74-3.81-3.32-5.97-4.68-3.11-1.96-6.41-3.46-9.92-4.52-3.14-.94-6.36-1.47-9.62-1.69-3.89-.27-7.74,.07-11.53,.99-3.48,.84-6.69,2.36-9.71,4.22-3.56,2.19-6.52,5.07-9,8.44-1.54,2.1-2.8,4.35-3.79,6.76-1.13,2.72-1.92,5.54-2.32,8.46-.08,.58-.19,1.15-.29,1.73-.15,.14-.31,.28-.46,.41-.84-.86-1.67-1.73-2.51-2.59,.14-.9,.24-1.82,.44-2.71,.79-3.61,2.15-6.99,3.97-10.21,2.23-3.93,5.08-7.35,8.52-10.25,3.1-2.62,6.57-4.66,10.35-6.17,3.12-1.24,6.34-2.05,9.69-2.33,3.97-.33,7.92-.26,11.85,.44,3.99,.7,7.81,1.91,11.46,3.69,3.6,1.76,6.87,3.99,9.85,6.66,3.87,3.47,7,7.52,9.49,12.07,1.71,3.12,3.06,6.39,4.04,9.81,.05,.18,.05,.37,.08,.56-.24,.27-.48,.55-.73,.82Z"/>
        <path class="cls-5" d="M47,197.94c.1-.58,.21-1.15,.29-1.73,.4-2.92,1.2-5.74,2.32-8.46,1-2.4,2.25-4.66,3.79-6.76,2.48-3.37,5.44-6.25,9-8.44,3.02-1.86,6.23-3.38,9.71-4.22,3.79-.92,7.64-1.26,11.53-.99,3.27,.22,6.49,.75,9.62,1.69,3.51,1.06,6.81,2.56,9.92,4.52,2.16,1.36,4.13,2.93,5.97,4.68,3.03,2.88,5.52,6.18,7.54,9.84,1.16,2.11,2.14,4.29,2.94,6.55,.06,.18,.18,.33,.27,.5-.01,.07-.05,.15-.03,.22,.27,.93,.55,1.86,.83,2.78,.18,.56,.37,1.12,.56,1.68,.04,.35,.04,.71,.12,1.06,.85,3.79,1.02,7.64,.94,11.51-.06,2.8-.16,5.6-.84,8.34-.53,2.15-1.82,3.61-4.05,3.99-2.27,.39-4.57,.75-6.87,.89-2.93,.18-5.88,.19-8.81,.13-3.25-.06-6.48-.5-9.68-1.07-.51-.09-1.02-.19-1.61-.29,.19-.23,.32-.41,.48-.57,2.21-2.27,3.96-4.85,5.09-7.81,1.38-3.61,1.88-7.36,1.59-11.21-.24-3.19-1.09-6.21-2.92-8.86-1.4-2.03-3.12-3.8-5.1-5.26-2.82-2.09-6-3.33-9.51-3.67-4.47-.43-8.49,.7-11.96,3.56-2.9,2.38-4.95,5.36-5.79,9.06-.93,4.07-.35,7.88,2.29,11.24,1.56,1.99,3.4,3.65,5.75,4.6,3.99,1.62,8.68,1.34,12.33-2.07,1.71-1.59,2.87-3.49,3.31-5.78,.63-3.31-.39-6.15-2.68-8.55-2.4-2.51-5.33-3.21-8.59-2.11-2.88,.97-5.35,3.75-5.21,7.12,.03,.82,.55,1.42,1.34,1.53,.91,.12,1.65-.31,1.85-1.14,.17-.71,.2-1.45,.43-2.14,.67-1.97,2.44-2.99,4.54-2.56,2.2,.46,3.92,1.65,4.74,3.82,.71,1.88,.39,3.74-.5,5.5-1.57,3.08-4.69,4.28-7.93,3.91-2.15-.24-4.05-1.09-5.63-2.6-1.72-1.65-2.77-3.65-2.94-6.04-.18-2.46,.09-4.86,1.25-7.1,1.94-3.77,5.01-6.09,9.17-6.75,3.76-.6,7.36,.11,10.69,2.04,1.97,1.14,3.7,2.56,4.98,4.44,1.53,2.26,2.64,4.72,2.9,7.5,.3,3.22,.06,6.38-1.02,9.45-.79,2.23-1.88,4.31-3.41,6.11-.88,1.03-1.83,2.01-2.85,2.89-3.07,2.62-6.66,4.12-10.65,4.62-4.58,.58-9-.09-13.26-1.84-3.36-1.38-6.32-3.37-8.85-5.96-3.13-3.21-5.29-6.99-6.48-11.33-.87-3.16-1.02-6.37-.93-9.62,0-.28,0-.56,0-.83Z"/>
      </g>
      <g>
        <path class="cls-6" d="M171.63,237.58c-1.05-.5-2.12-.96-3.13-1.52-3.16-1.74-6.09-3.83-8.87-6.14-2.12-1.75-4.15-3.59-5.79-5.83-1.28-1.74-1.7-3.69-1.65-5.8,.05-2.06,1-3.77,1.98-5.52,1.59-2.85,3.44-5.51,5.44-8.08,2.53-3.24,5.3-6.27,8.28-9.1,1.55-1.47,3.17-2.85,4.75-4.29,.16-.14,.28-.39,.3-.61,.52-4.22,1.82-8.12,4.32-11.64,2.87-4.04,6.51-7.09,10.93-9.26,4.46-2.18,9.16-3.19,14.12-3.11,3.69,.06,7.25,.77,10.68,2.13,2.33,.93,4.54,2.1,6.56,3.61,.12,.09,.21,.22,.31,.34,.03,.27,.06,.55,.1,.82,.16,1.11,.32,2.23,.48,3.34,.01,.21,.03,.41,.04,.62-.22-.17-.45-.33-.66-.51-2.51-2.06-5.13-3.93-8.15-5.19-4.15-1.73-8.46-2.35-12.91-1.86-3.6,.4-6.99,1.5-10.14,3.31-4,2.29-7.25,5.35-9.61,9.32-2.06,3.46-3.09,7.21-2.91,11.24,.06,1.35,.25,2.7,.52,4.02,.48,2.32,1.44,4.45,2.72,6.45,1.75,2.74,4.09,4.87,6.82,6.62,2.35,1.51,4.97,2.14,7.7,2.33,2.27,.15,4.45-.34,6.56-1.19,3.57-1.44,6.34-3.83,8.18-7.17,2.04-3.69,2.09-7.53,.32-11.38-1.05-2.29-2.78-3.97-4.83-5.35-1.99-1.34-4.22-1.74-6.57-1.4-2.16,.31-3.99,1.29-5.51,2.84-2.28,2.33-3.26,5.52-1.8,8.66,.83,1.78,2.1,3.18,4.02,3.78,2.21,.68,4.21,.06,5.93-1.39,1.64-1.39,1.93-3.41,.78-5.15-.4-.6-.97-1.09-1.42-1.66-.53-.67-.41-1.52,.24-2.16,.57-.56,1.36-.59,2.03-.11,2.75,1.97,3.42,5.62,2.41,8.49-1.14,3.24-3.49,5.12-6.95,5.47-3.3,.33-6.17-.61-8.39-3.15-1.53-1.75-2.32-3.84-2.52-6.16-.43-4.97,2.23-8.84,5.96-10.99,2.2-1.27,4.65-1.7,7.17-1.7,4.28-.01,7.63,1.88,10.27,5.11,2.4,2.94,3.48,6.39,3.58,10.14,.11,4.5-1.47,8.36-4.56,11.62-2.43,2.56-5.37,4.3-8.75,5.24-2.37,.66-4.83,.93-7.29,.78-3.21-.19-6.12-1.37-8.78-3.15-3.21-2.14-5.86-4.84-7.86-8.16-1.64-2.72-2.59-5.68-3.02-8.82-.03-.22-.09-.43-.15-.72-.45,.4-.84,.74-1.22,1.09-2.43,2.17-4.75,4.45-6.8,6.97-1.85,2.28-3.65,4.61-5.32,7.03-1.31,1.9-2.43,3.93-3.52,5.96-1.07,1.99-.71,3.91,.65,5.65,1.74,2.22,3.89,4.02,6.05,5.79,3,2.45,6.14,4.68,9.65,6.35,.32,.15,.6,.37,.9,.56,.09,.78,.19,1.55,.28,2.33-.02,.03-.04,.05-.06,.08-.63,.07-1.26,.15-1.89,.22Z"/>
        <path class="cls-6" d="M173.51,237.36s.04-.05,.06-.08c.68-.08,1.37-.17,2.05-.25,.73-.09,1.47-.18,2.2-.27,.19,.03,.38,.03,.56,.09,2.28,.76,4.6,1.32,6.98,1.71,4.13,.67,8.26,.74,12.4,.12,2.51-.38,4.96-.96,7.36-1.83,3.46-1.24,6.67-2.92,9.66-5.04,2.68-1.89,5.07-4.11,7.26-6.54,2.61-2.9,4.7-6.14,6.31-9.7,1.48-3.26,2.25-6.72,2.65-10.25,.47-4.15,.02-8.26-1.11-12.28-.7-2.5-1.71-4.88-2.99-7.15-1.45-2.57-3.18-4.92-5.24-7.04-.41-.42-.79-.86-1.19-1.29-.01-.21-.03-.41-.04-.62,1.2-.13,2.39-.25,3.59-.38,.62,.67,1.28,1.31,1.86,2.01,2.35,2.84,4.19,6,5.6,9.41,1.73,4.17,2.67,8.52,2.84,13.02,.16,4.06-.37,8.05-1.51,11.95-.94,3.22-2.28,6.26-4.12,9.07-2.18,3.33-4.67,6.4-7.63,9.07-3.01,2.71-6.31,4.98-9.96,6.76-3.61,1.75-7.37,2.96-11.32,3.67-5.12,.91-10.23,.89-15.36,.05-3.51-.58-6.92-1.52-10.22-2.85-.17-.07-.33-.19-.49-.28-.07-.36-.13-.72-.2-1.08Z"/>
        <path class="cls-5" d="M220.46,177.56c.4,.43,.78,.87,1.19,1.29,2.06,2.12,3.79,4.47,5.24,7.04,1.28,2.26,2.29,4.64,2.99,7.15,1.13,4.02,1.58,8.13,1.11,12.28-.4,3.53-1.17,6.99-2.65,10.25-1.61,3.56-3.71,6.79-6.31,9.7-2.19,2.44-4.58,4.65-7.26,6.54-2.99,2.12-6.21,3.79-9.66,5.04-2.4,.86-4.86,1.45-7.36,1.83-4.13,.62-8.27,.55-12.4-.12-2.37-.39-4.7-.95-6.98-1.71-.18-.06-.37-.06-.56-.09-.05-.05-.09-.13-.16-.15-.9-.36-1.8-.71-2.7-1.05-.55-.21-1.11-.4-1.67-.59-.3-.19-.59-.41-.9-.56-3.51-1.67-6.65-3.9-9.65-6.35-2.17-1.77-4.31-3.57-6.05-5.79-1.37-1.74-1.72-3.66-.65-5.65,1.1-2.03,2.22-4.06,3.52-5.96,1.66-2.42,3.47-4.75,5.32-7.03,2.05-2.52,4.38-4.8,6.8-6.97,.39-.34,.77-.69,1.22-1.09,.06,.29,.12,.51,.15,.72,.43,3.14,1.38,6.1,3.02,8.82,2,3.31,4.65,6.01,7.86,8.16,2.66,1.78,5.57,2.96,8.78,3.15,2.46,.15,4.91-.12,7.29-.78,3.38-.94,6.32-2.68,8.75-5.24,3.09-3.26,4.67-7.12,4.56-11.62-.09-3.75-1.18-7.2-3.58-10.14-2.64-3.23-5.99-5.12-10.27-5.11-2.52,0-4.97,.44-7.17,1.7-3.73,2.15-6.39,6.02-5.96,10.99,.2,2.33,.99,4.41,2.52,6.16,2.22,2.54,5.09,3.48,8.39,3.15,3.46-.35,5.81-2.23,6.95-5.47,1.01-2.86,.34-6.52-2.41-8.49-.67-.48-1.46-.44-2.03,.11-.65,.64-.77,1.49-.24,2.16,.45,.57,1.02,1.06,1.42,1.66,1.15,1.74,.86,3.76-.78,5.15-1.72,1.45-3.72,2.07-5.93,1.39-1.92-.59-3.19-1.99-4.02-3.78-1.46-3.14-.48-6.33,1.8-8.66,1.52-1.55,3.35-2.52,5.51-2.84,2.36-.34,4.58,.06,6.57,1.4,2.05,1.38,3.77,3.07,4.83,5.35,1.77,3.85,1.72,7.69-.32,11.38-1.84,3.34-4.62,5.73-8.18,7.17-2.11,.85-4.3,1.34-6.56,1.19-2.73-.18-5.34-.82-7.7-2.33-2.73-1.75-5.07-3.87-6.82-6.62-1.28-2-2.24-4.13-2.72-6.45-.27-1.32-.46-2.68-.52-4.02-.18-4.03,.85-7.78,2.91-11.24,2.36-3.97,5.61-7.03,9.61-9.32,3.16-1.8,6.54-2.91,10.14-3.31,4.45-.49,8.76,.14,12.91,1.86,3.02,1.26,5.65,3.12,8.15,5.19,.21,.18,.44,.34,.66,.51Z"/>
      </g>
      <g>
        <path class="cls-6" d="M317.59,162.16c-.66-.96-1.28-1.94-1.98-2.86-2.21-2.86-4.73-5.43-7.43-7.82-2.06-1.82-4.19-3.55-6.65-4.83-1.91-1-3.91-1.11-5.98-.73-2.03,.37-3.57,1.57-5.15,2.8-2.57,2.01-4.92,4.25-7.15,6.62-2.81,2.99-5.38,6.2-7.71,9.58-1.21,1.75-2.33,3.58-3.51,5.36-.12,.18-.35,.33-.55,.39-4.09,1.17-7.75,3.05-10.84,6.06-3.55,3.46-6.01,7.52-7.47,12.23-1.47,4.74-1.75,9.54-.9,14.43,.63,3.64,1.88,7.05,3.75,10.22,1.27,2.16,2.78,4.16,4.57,5.93,.11,.11,.25,.17,.38,.26,.28-.01,.55-.03,.83-.03,1.12-.02,2.25-.03,3.37-.04,.21-.02,.41-.04,.62-.05-.2-.19-.4-.39-.6-.57-2.42-2.16-4.67-4.46-6.38-7.26-2.34-3.84-3.63-8-3.83-12.47-.16-3.62,.41-7.13,1.71-10.53,1.64-4.31,4.17-7.99,7.73-10.93,3.1-2.56,6.65-4.16,10.66-4.61,1.34-.15,2.71-.17,4.06-.11,2.36,.11,4.62,.74,6.79,1.69,2.98,1.31,5.44,3.29,7.59,5.72,1.85,2.09,2.88,4.58,3.49,7.25,.5,2.22,.35,4.45-.16,6.67-.87,3.75-2.81,6.86-5.82,9.19-3.33,2.58-7.12,3.23-11.19,2.07-2.42-.69-4.35-2.13-6.03-3.94-1.63-1.76-2.37-3.9-2.4-6.28-.02-2.18,.66-4.14,1.95-5.88,1.95-2.61,4.95-4.07,8.28-3.11,1.89,.55,3.47,1.59,4.35,3.39,1.02,2.08,.71,4.15-.46,6.07-1.12,1.84-3.08,2.43-4.97,1.57-.66-.3-1.22-.79-1.86-1.15-.75-.42-1.57-.18-2.1,.57-.46,.65-.38,1.43,.2,2.02,2.37,2.41,6.08,2.51,8.76,1.07,3.03-1.63,4.53-4.24,4.33-7.71-.18-3.31-1.55-6-4.4-7.8-1.97-1.25-4.15-1.7-6.48-1.54-4.98,.34-8.4,3.56-9.94,7.58-.91,2.37-.96,4.85-.58,7.35,.65,4.23,3.03,7.25,6.63,9.36,3.27,1.91,6.85,2.46,10.57,1.97,4.46-.58,8.04-2.74,10.78-6.29,2.16-2.79,3.42-5.96,3.83-9.45,.29-2.45,.17-4.91-.35-7.32-.68-3.15-2.3-5.83-4.46-8.19-2.61-2.84-5.69-5.05-9.27-6.51-2.94-1.2-6.01-1.69-9.18-1.63-.22,0-.44-.02-.74-.04,.33-.51,.61-.94,.89-1.38,1.77-2.73,3.66-5.38,5.84-7.79,1.97-2.18,3.99-4.32,6.12-6.34,1.67-1.58,3.51-3,5.35-4.4,1.8-1.37,3.75-1.31,5.68-.23,2.46,1.38,4.57,3.22,6.65,5.09,2.88,2.58,5.57,5.34,7.76,8.56,.2,.29,.46,.54,.69,.81,.78-.03,1.56-.06,2.34-.08,.02-.02,.04-.05,.07-.07-.02-.63-.05-1.26-.07-1.9Z"/>
        <path class="cls-6" d="M317.67,164.05s-.04,.05-.07,.07c.02,.69,.04,1.37,.07,2.06,.02,.74,.05,1.48,.07,2.22,.06,.18,.09,.37,.18,.54,1.1,2.13,2.02,4.34,2.76,6.63,1.3,3.98,2,8.05,2.03,12.23,.01,2.53-.19,5.05-.67,7.56-.7,3.61-1.86,7.04-3.49,10.32-1.46,2.94-3.28,5.64-5.35,8.18-2.47,3.02-5.35,5.59-8.61,7.73-3,1.96-6.3,3.26-9.72,4.2-4.03,1.1-8.16,1.29-12.31,.79-2.58-.31-5.09-.94-7.52-1.85-2.76-1.04-5.35-2.39-7.76-4.09-.48-.34-.97-.65-1.46-.97-.21,.02-.41,.04-.62,.05,.06,1.2,.12,2.4,.18,3.61,.76,.51,1.49,1.07,2.28,1.53,3.17,1.89,6.57,3.22,10.16,4.08,4.39,1.06,8.83,1.32,13.3,.8,4.03-.47,7.89-1.6,11.58-3.33,3.04-1.43,5.83-3.22,8.33-5.47,2.96-2.67,5.6-5.6,7.78-8.94,2.21-3.39,3.95-7,5.14-10.89,1.18-3.83,1.79-7.74,1.88-11.75,.11-5.2-.69-10.25-2.31-15.18-1.11-3.38-2.57-6.6-4.39-9.65-.1-.16-.23-.29-.35-.44-.36-.01-.73-.02-1.09-.03Z"/>
        <path class="cls-5" d="M265.81,219.66c.49,.32,.98,.64,1.46,.97,2.41,1.71,5,3.05,7.76,4.09,2.43,.92,4.94,1.54,7.52,1.85,4.15,.5,8.28,.31,12.31-.79,3.42-.93,6.72-2.23,9.72-4.2,3.26-2.14,6.14-4.71,8.61-7.73,2.07-2.54,3.89-5.24,5.35-8.18,1.63-3.28,2.79-6.72,3.49-10.32,.48-2.5,.69-5.02,.67-7.56-.02-4.18-.73-8.25-2.03-12.23-.75-2.29-1.66-4.49-2.76-6.63-.09-.17-.12-.36-.18-.54-.06-.04-.14-.07-.18-.13-.49-.83-.98-1.67-1.46-2.51-.29-.51-.56-1.04-.84-1.56-.23-.27-.49-.52-.69-.81-2.19-3.21-4.88-5.97-7.76-8.56-2.08-1.87-4.2-3.71-6.65-5.09-1.93-1.08-3.88-1.14-5.68,.23-1.84,1.39-3.67,2.82-5.35,4.4-2.13,2.02-4.16,4.16-6.12,6.34-2.18,2.42-4.07,5.06-5.84,7.79-.28,.43-.56,.87-.89,1.38,.3,.02,.52,.04,.74,.04,3.17-.06,6.24,.43,9.18,1.63,3.58,1.46,6.66,3.67,9.27,6.51,2.17,2.35,3.78,5.04,4.46,8.19,.52,2.41,.64,4.87,.35,7.32-.41,3.48-1.67,6.66-3.83,9.45-2.74,3.55-6.32,5.71-10.78,6.29-3.72,.49-7.3-.06-10.57-1.97-3.6-2.11-5.98-5.13-6.63-9.36-.38-2.49-.34-4.97,.58-7.35,1.55-4.02,4.96-7.24,9.94-7.58,2.33-.16,4.51,.3,6.48,1.54,2.85,1.8,4.22,4.49,4.4,7.8,.19,3.47-1.31,6.08-4.33,7.71-2.67,1.44-6.39,1.34-8.76-1.07-.58-.59-.66-1.37-.2-2.02,.53-.75,1.35-.99,2.1-.57,.63,.36,1.2,.85,1.86,1.15,1.9,.86,3.85,.27,4.97-1.57,1.17-1.92,1.48-3.99,.46-6.07-.88-1.81-2.46-2.85-4.35-3.39-3.32-.96-6.33,.5-8.28,3.11-1.29,1.74-1.98,3.7-1.95,5.88,.03,2.38,.77,4.51,2.4,6.28,1.68,1.81,3.61,3.26,6.03,3.94,4.08,1.16,7.87,.51,11.19-2.07,3.01-2.33,4.95-5.44,5.82-9.19,.51-2.22,.66-4.45,.16-6.67-.6-2.67-1.64-5.15-3.49-7.25-2.15-2.43-4.61-4.41-7.59-5.72-2.17-.95-4.42-1.58-6.79-1.69-1.35-.06-2.71-.04-4.06,.11-4.01,.44-7.56,2.04-10.66,4.61-3.56,2.94-6.09,6.62-7.73,10.93-1.3,3.4-1.87,6.91-1.71,10.53,.2,4.48,1.48,8.64,3.83,12.47,1.71,2.79,3.96,5.1,6.38,7.26,.21,.18,.4,.38,.6,.57Z"/>
      </g>
      <g>
        <path class="cls-6" d="M352.52,183.24c-.14,1.15-.33,2.3-.4,3.46-.24,3.6-.05,7.2,.4,10.78,.34,2.73,.8,5.43,1.79,8.02,.78,2.01,2.2,3.42,4,4.51,1.77,1.07,3.72,1.18,5.71,1.3,3.26,.19,6.5,.07,9.74-.24,4.09-.38,8.13-1.1,12.12-2.09,2.07-.51,4.11-1.14,6.17-1.7,.21-.06,.48-.02,.67,.07,3.84,1.83,7.82,2.84,12.14,2.62,4.95-.25,9.48-1.67,13.69-4.23,4.24-2.58,7.62-6,10.22-10.22,1.94-3.15,3.25-6.53,3.94-10.15,.47-2.46,.67-4.96,.49-7.47-.01-.15-.08-.3-.11-.45-.21-.17-.43-.34-.64-.52-.85-.73-1.71-1.47-2.56-2.2-.17-.12-.33-.25-.5-.37,.02,.28,.04,.55,.07,.83,.39,3.22,.55,6.44-.02,9.66-.78,4.43-2.57,8.4-5.38,11.89-2.27,2.82-5.03,5.08-8.24,6.77-4.08,2.14-8.41,3.23-13.03,3.09-4.02-.13-7.74-1.27-11.04-3.6-1.1-.78-2.14-1.66-3.11-2.6-1.7-1.65-2.98-3.61-3.97-5.76-1.37-2.96-1.9-6.07-1.91-9.31,0-2.79,.86-5.34,2.18-7.74,1.09-1.99,2.68-3.57,4.53-4.89,3.13-2.24,6.64-3.28,10.45-3.04,4.2,.27,7.48,2.29,9.77,5.85,1.36,2.12,1.86,4.48,1.91,6.95,.06,2.4-.8,4.49-2.35,6.3-1.42,1.65-3.24,2.67-5.35,3.12-3.19,.67-6.41-.22-8.26-3.14-1.06-1.66-1.55-3.49-1.02-5.43,.61-2.23,2.21-3.58,4.36-4.25,2.06-.64,3.92,.21,4.77,2.11,.29,.66,.39,1.4,.64,2.09,.28,.81,1.06,1.17,1.95,.96,.78-.18,1.23-.83,1.19-1.65-.18-3.37-2.9-5.91-5.86-6.6-3.35-.78-6.2,.19-8.35,2.92-2.05,2.6-2.8,5.53-1.86,8.76,.65,2.24,1.98,4.02,3.84,5.44,3.96,3.04,8.65,2.88,12.47,.89,2.25-1.18,3.93-3,5.29-5.13,2.31-3.6,2.53-7.44,1.22-11.41-1.19-3.6-3.51-6.37-6.62-8.47-3.73-2.51-7.84-3.26-12.25-2.41-3.46,.67-6.51,2.21-9.12,4.56-1.83,1.65-3.38,3.57-4.58,5.72-1.57,2.81-2.14,5.9-2.07,9.09,.08,3.86,.93,7.55,2.65,11.01,1.41,2.84,3.39,5.24,5.81,7.29,.17,.14,.31,.31,.53,.52-.58,.16-1.08,.31-1.57,.45-3.13,.88-6.3,1.61-9.53,1.98-2.92,.34-5.85,.6-8.78,.7-2.3,.08-4.62-.07-6.92-.24-2.25-.17-3.68-1.5-4.41-3.59-.93-2.66-1.3-5.44-1.62-8.22-.45-3.84-.64-7.69-.16-11.55,.04-.35,.01-.71,.01-1.06-.6-.5-1.21-.99-1.81-1.49-.03,0-.06,0-.1,0-.4,.49-.8,.98-1.2,1.47Z"/>
        <path class="cls-6" d="M353.72,181.77s.06,0,.1,0c.44-.53,.88-1.06,1.32-1.59,.47-.57,.94-1.14,1.42-1.71,.08-.17,.18-.34,.22-.52,.59-2.33,1.36-4.59,2.31-6.8,1.66-3.84,3.82-7.36,6.57-10.51,1.67-1.91,3.48-3.67,5.5-5.22,2.91-2.24,6.05-4.05,9.45-5.43,3.04-1.24,6.19-2.06,9.42-2.6,3.85-.63,7.71-.66,11.57-.1,3.55,.51,6.88,1.72,10.07,3.28,3.75,1.84,6.97,4.43,9.75,7.55,1.73,1.94,3.2,4.07,4.41,6.37,1.38,2.61,2.44,5.33,3.12,8.2,.13,.57,.3,1.13,.45,1.7,.17,.12,.33,.25,.5,.37,.75-.94,1.5-1.88,2.25-2.82-.23-.89-.41-1.79-.69-2.65-1.13-3.51-2.8-6.76-4.92-9.78-2.59-3.7-5.75-6.83-9.45-9.4-3.34-2.32-6.98-4.02-10.89-5.16-3.22-.94-6.5-1.44-9.87-1.41-3.98,.04-7.91,.49-11.75,1.56-3.9,1.08-7.6,2.64-11.06,4.76-3.42,2.1-6.46,4.62-9.18,7.57-3.52,3.82-6.26,8.15-8.31,12.92-1.4,3.27-2.44,6.65-3.09,10.15-.03,.18-.02,.38-.03,.56,.27,.25,.53,.5,.8,.75Z"/>
        <path class="cls-5" d="M429.39,174.37c-.15-.57-.32-1.13-.45-1.7-.68-2.87-1.73-5.6-3.12-8.2-1.22-2.3-2.68-4.43-4.41-6.37-2.78-3.12-6-5.71-9.75-7.55-3.19-1.56-6.52-2.77-10.07-3.28-3.86-.56-7.72-.53-11.57,.1-3.23,.53-6.39,1.36-9.42,2.6-3.39,1.38-6.54,3.19-9.45,5.43-2.02,1.56-3.84,3.31-5.5,5.22-2.75,3.15-4.91,6.67-6.57,10.51-.95,2.21-1.73,4.47-2.31,6.8-.05,.18-.15,.35-.22,.52,.02,.07,.06,.15,.05,.21-.18,.95-.37,1.9-.57,2.85-.12,.58-.26,1.15-.4,1.73,0,.35,.03,.71-.01,1.06-.48,3.86-.29,7.71,.16,11.55,.33,2.78,.69,5.56,1.62,8.22,.73,2.09,2.16,3.42,4.41,3.59,2.3,.17,4.62,.32,6.92,.24,2.93-.1,5.87-.37,8.78-.7,3.23-.37,6.4-1.11,9.53-1.98,.5-.14,1-.28,1.57-.45-.21-.21-.36-.38-.53-.52-2.42-2.05-4.4-4.45-5.81-7.29-1.72-3.47-2.57-7.15-2.65-11.01-.07-3.2,.5-6.28,2.07-9.09,1.2-2.15,2.74-4.08,4.58-5.72,2.61-2.34,5.65-3.89,9.12-4.56,4.41-.85,8.52-.1,12.25,2.41,3.11,2.1,5.44,4.87,6.62,8.47,1.31,3.96,1.09,7.81-1.22,11.41-1.36,2.12-3.04,3.95-5.29,5.13-3.82,1.99-8.51,2.15-12.47-.89-1.85-1.42-3.19-3.21-3.84-5.44-.94-3.24-.19-6.16,1.86-8.76,2.15-2.73,5-3.7,8.35-2.92,2.96,.69,5.68,3.22,5.86,6.6,.04,.82-.41,1.47-1.19,1.65-.89,.21-1.67-.15-1.95-.96-.24-.69-.34-1.43-.64-2.09-.85-1.9-2.71-2.75-4.77-2.11-2.15,.66-3.75,2.02-4.36,4.25-.53,1.94-.04,3.76,1.02,5.43,1.86,2.92,5.08,3.81,8.26,3.14,2.12-.45,3.93-1.47,5.35-3.12,1.56-1.8,2.41-3.89,2.35-6.3-.06-2.47-.55-4.83-1.91-6.95-2.29-3.57-5.56-5.58-9.77-5.85-3.8-.24-7.32,.81-10.45,3.04-1.85,1.32-3.44,2.9-4.53,4.89-1.31,2.4-2.18,4.95-2.18,7.74,0,3.24,.54,6.35,1.91,9.31,1,2.15,2.27,4.11,3.97,5.76,.97,.94,2.01,1.83,3.11,2.6,3.3,2.32,7.02,3.47,11.04,3.6,4.62,.15,8.95-.94,13.03-3.09,3.22-1.69,5.97-3.95,8.24-6.77,2.81-3.49,4.6-7.46,5.38-11.89,.57-3.22,.41-6.44,.02-9.66-.03-.28-.05-.55-.07-.83Z"/>
      </g>
    </g>
  </g>
  <g id="Dessus">
    <path class="cls-1" d="M215.49,5.64c152.01-18.12,250.43,119.19,244,136-13,34-412,86-452,45C-11.48,167.2,64.49,23.64,215.49,5.64Z"/>
    <path class="cls-7" d="M367.99,55.14C293.99-2.86,121.38,4.06,37.99,129.14,0,186.14,93.99,97.7,202.99,84.92s206,29.22,233,39.22c0,0-19.76-31.19-68-69Z"/>
  </g>
</svg>