<?xml version="1.0" encoding="UTF-8"?>
<svg id="Calque_2" data-name="Calque 2" xmlns="http://www.w3.org/2000/svg" viewBox="0 0 465.65 310.23">
  <defs>
    <style>
      .cls-1 {
        fill: #c9c76b;
      }

      .cls-1, .cls-2, .cls-3, .cls-4, .cls-5 {
        stroke-miterlimit: 10;
      }

      .cls-1, .cls-4 {
        stroke-width: 8px;
      }

      .cls-1, .cls-5 {
        stroke: #ad8249;
      }

      .cls-2 {
        fill: #f7d27f;
        stroke: #ceaa51;
      }

      .cls-2, .cls-3 {
        stroke-width: 17px;
      }

      .cls-3 {
        fill: #57992c;
        stroke: #a7dd99;
      }

      .cls-4 {
        fill: #e2cdb5;
        stroke: #ddb897;
      }

      .cls-5 {
        fill: #ad8249;
        stroke-width: 5px;
      }

      .cls-6 {
        fill: #e0dc90;
      }
    </style>
  </defs>
  <g id="Dessous">
    <path class="cls-5" d="M17.69,200.37c-19.95,26.74,108,125.99,242.8,104.27,144.53-23.29,216.35-141.74,199-163-17.35-21.26-412.48,19.42-441.8,58.73Z"/>
  </g>
  <g id="Garniture">
    <g>
      <path class="cls-3" d="M46.96,220.71c22.53-11.07,24.53,6.93,45.53,12.93s10,19.24,0,30.12-23.77-13.88-40.89,0-23.11,5.33-20.61-12.39,16.5-30.73-3.5-37.73,9,39,20,7"/>
      <path class="cls-3" d="M144.98,251.47c1.59,25.05-15.8,20-29.39,37.1-13.59,17.1-21.6,1.86-27.82-11.55-6.22-13.41,21.93-16.64,15.67-37.76-6.26-21.13,3.93-23.39,19.35-14.29,15.41,9.1,22.05,27.02,36.19,11.23,14.13-15.79-39.47-6.64-14.13,15.79"/>
      <path class="cls-3" d="M152.08,265.83c-10.49-22.81,7.55-24.35,14.08-45.19,6.53-20.84,19.49-9.51,30.11,.77s-14.48,23.41-1.04,40.87c13.44,17.46,4.74,23.24-12.91,20.29s-30.3-17.28-37.8,2.54c-7.51,19.82,39.22-8,7.51-19.82"/>
      <path class="cls-3" d="M216.68,233.68c19.52-15.78,25.46,1.33,47.26,2.54,21.81,1.21,14.01,16.55,6.66,29.37s-26.26-8.28-39.87,9.05c-13.62,17.32-21.36,10.31-22.84-7.53-1.48-17.84,9.29-33.61-11.76-36.02-21.05-2.4,17.4,36.04,21.05,2.4"/>
      <path class="cls-3" d="M345.29,236.86c.22,25.1-16.87,19.11-31.37,35.44-14.5,16.33-21.67,.68-27.15-13.04s22.81-15.42,17.71-36.85c-5.1-21.44,5.2-23.14,20.1-13.21,14.89,9.93,20.55,28.18,35.52,13.18,14.97-15-39.05-8.78-14.97,15"/>
      <path class="cls-3" d="M386.34,201.64c24.33,6.18,14.18,21.18,26.28,39.37,12.1,18.19-4.86,21.13-19.53,22.93s-9.1-25.98-31.13-26.51c-22.03-.53-21.05-10.93-7.65-22.8,13.4-11.87,32.49-12.69,21.8-30.99-10.69-18.3-18.44,35.52,10.69,18.3"/>
      <path class="cls-2" d="M8.5,191.94c0-32.65,89.6-18.46,97.04-9.12,7.44,9.35,38.15,3.45,50.87-4.78,12.72-8.23,60.71-15.29,71.58-9.51,10.87,5.78,50.59-.51,71.53-6.72,20.95-6.21,35.57-21.59,55.83-14.48,20.25,7.11,11.88,10.41,27.28,5.19,15.4-5.21,69.43-13.85,73.86,15.13,4.43,28.99-13.93,123.46-41,123.99-27.07,.53-1-62-36.8-72.21-21.97-6.27-47.2,27.21-74.32,32.09-27.22,4.9-44.56-20.14-66.85-18.98-40.03,2.1-50.03,29.1-92.73,30.95-29.72,1.29-45.3-23.86-80.56-23.57-13.04,.11-55.73-15.86-55.73-48Z"/>
    </g>
    <path class="cls-4" d="M37.38,202.01c-.57,2.56,.17,6.08,1.65,7.76,6.87,7.06,15.78,.94,23.95,2.06,2.23-.18,4.27,2.79,5.57,2.23,7.25-4.64-.55-12.07-6.49-13.38-7.24-.75-14.86,4.82-22.74-.94-.82,.15-1.55,.87-1.94,2.26Z"/>
    <path class="cls-4" d="M34.75,225.51c1.23,2.76,4.35,5.52,6.87,6.05,11.22,1.82,15.27-9.99,23.61-14.58,1.94-1.7,5.87-.35,6.7-1.76,3.52-9.28-8.81-10.81-15.22-7.92-7.22,4.29-10.45,14.69-21.71,14.78-.66,.71-.84,1.88-.24,3.43Z"/>
    <path class="cls-4" d="M32.57,189.72c-2.58,.42-5.58,2.42-6.58,4.42-4,9,5,15,7,23,1,2-1,5,0,6,7,5,11-5,10-11-2-7-10-12-7.59-21.46-.45-.71-1.39-1.11-2.82-.96Z"/>
    <path class="cls-4" d="M70.52,218.6c2.34,1.18,5.94,1.34,7.93,.31,8.54-4.91,4.81-15.06,7.91-22.7,.37-2.2,3.76-3.45,3.54-4.85-2.71-8.17-11.83-2.45-14.56,2.99-2.51,6.83,1,15.59-6.52,21.81-.05,.83,.46,1.72,1.71,2.44Z"/>
    <path class="cls-4" d="M92.64,226.94c2.98-.51,6.42-2.85,7.55-5.17,4.53-10.43-5.92-17.26-8.3-26.47-1.17-2.3,1.11-5.78-.06-6.92-8.13-5.7-12.65,5.88-11.43,12.79,2.38,8.06,11.66,13.75,8.97,24.69,.52,.81,1.61,1.27,3.27,1.08Z"/>
    <path class="cls-4" d="M63.76,209.44c-1.92,1.78-3.3,5.11-3.03,7.33,1.66,9.71,12.48,9.71,18.58,15.26,1.94,1.11,1.94,4.72,3.33,4.99,8.6,.28,6.38-10.26,2.22-14.7-5.55-4.72-14.98-4.44-18.22-13.65-.76-.34-1.77-.16-2.88,.76Z"/>
    <path class="cls-4" d="M103.52,215.6c2.34,1.18,5.94,1.34,7.93,.31,8.54-4.91,4.81-15.06,7.91-22.7,.37-2.2,3.76-3.45,3.54-4.85-2.71-8.17-11.83-2.45-14.56,2.99-2.51,6.83,1,15.59-6.52,21.81-.05,.83,.46,1.72,1.71,2.44Z"/>
    <path class="cls-4" d="M125.64,223.94c2.98-.51,6.42-2.85,7.55-5.17,4.53-10.43-5.92-17.26-8.3-26.47-1.17-2.3,1.11-5.78-.06-6.92-8.13-5.7-12.65,5.88-11.43,12.79,2.38,8.06,11.66,13.75,8.97,24.69,.52,.81,1.61,1.27,3.27,1.08Z"/>
    <path class="cls-4" d="M149.65,239.43c2.51-1.68,4.7-5.22,4.79-7.8-.12-11.37-12.44-13.35-18.38-20.78-2.01-1.62-1.35-5.73-2.88-6.3-9.75-1.89-9.15,10.53-5.22,16.34,5.46,6.39,16.25,7.8,18.26,18.88,.81,.53,1.99,.5,3.43-.34Z"/>
    <path class="cls-4" d="M90.42,217.23c-.23,2.61,.97,6.01,2.66,7.47,7.74,6.1,15.77-1.15,24.02-1.11,2.18-.48,4.6,2.2,5.81,1.48,6.57-5.55-2.13-11.89-8.19-12.4-7.28,.21-14.1,6.73-22.67,2.06-.79,.26-1.42,1.07-1.63,2.5Z"/>
    <path class="cls-4" d="M230.93,227.71c1.01-2.41,.91-6.02-.25-7.93-5.51-8.17-15.37-3.72-23.21-6.27-2.23-.21-3.71-3.5-5.09-3.18-7.95,3.28-1.6,11.98,4.02,14.31,6.99,2.02,15.48-2.11,22.22,4.95,.84,0,1.68-.58,2.31-1.88Z"/>
    <path class="cls-4" d="M237.69,205.05c-.72-2.93-3.3-6.2-5.69-7.17-10.72-3.78-16.8,7.13-25.82,10.16-2.21,1.33-5.84-.69-6.9,.55-5.11,8.51,6.76,12.2,13.57,10.5,7.87-2.94,12.89-12.61,23.99-10.7,.77-.58,1.16-1.7,.85-3.34Z"/>
    <path class="cls-4" d="M244.49,224.66c2.62,.04,5.92-1.39,7.26-3.19,5.53-8.15-2.26-15.65-2.81-23.88-.63-2.15,1.87-4.74,1.06-5.91-6-6.16-11.71,2.97-11.79,9.05,.73,7.24,7.72,13.58,3.67,22.46,.32,.77,1.17,1.34,2.61,1.45Z"/>
    <path class="cls-4" d="M201.26,205.51c-2.09-1.58-5.61-2.37-7.74-1.71-9.27,3.32-7.4,13.97-11.8,20.94-.76,2.1-4.31,2.73-4.34,4.14,1.22,8.52,11.21,4.5,14.86-.36,3.68-6.28,1.78-15.52,10.28-20.31,.2-.81-.15-1.77-1.25-2.71Z"/>
    <path class="cls-4" d="M180.97,193.38c-3.02-.02-6.82,1.67-8.35,3.75-6.3,9.46,2.76,18.04,3.48,27.53,.75,2.47-2.11,5.49-1.17,6.83,6.99,7.05,13.49-3.54,13.52-10.56-.91-8.35-9.04-15.6-4.45-25.89-.37-.89-1.36-1.54-3.02-1.65Z"/>
    <path class="cls-4" d="M206.29,215.73c2.2-1.42,4.16-4.45,4.28-6.68,.08-9.85-10.56-11.77-15.58-18.31-1.71-1.44-1.07-4.98-2.39-5.5-8.41-1.8-8.1,8.97-4.79,14.07,4.62,5.62,13.95,7.02,15.51,16.66,.69,.47,1.72,.47,2.97-.24Z"/>
    <path class="cls-4" d="M168.25,202.62c-2.09-1.58-5.61-2.37-7.74-1.71-9.27,3.32-7.4,13.97-11.8,20.94-.76,2.1-4.31,2.73-4.34,4.14,1.22,8.52,11.21,4.5,14.86-.36,3.68-6.28,1.78-15.52,10.28-20.31,.2-.81-.15-1.77-1.25-2.71Z"/>
    <path class="cls-4" d="M147.96,190.49c-3.02-.02-6.82,1.67-8.35,3.75-6.3,9.46,2.76,18.04,3.48,27.53,.75,2.47-2.11,5.49-1.17,6.83,6.99,7.05,13.49-3.54,13.52-10.56-.91-8.35-9.04-15.6-4.45-25.89-.37-.89-1.36-1.54-3.02-1.65Z"/>
    <path class="cls-4" d="M127.07,170.99c-2.77,1.21-5.55,4.31-6.1,6.83-1.9,11.21,9.88,15.34,14.41,23.71,1.69,1.95,.31,5.88,1.72,6.71,9.26,3.59,10.87-8.74,8.03-15.16-4.24-7.25-14.61-10.55-14.63-21.82-.7-.66-1.87-.85-3.43-.27Z"/>
    <path class="cls-4" d="M181.43,203.34c.69-2.53,.11-6.09-1.3-7.82-6.53-7.37-15.72-1.67-23.83-3.16-2.23,.08-4.14-2.98-5.46-2.49-7.45,4.3,0,12.08,5.87,13.66,7.2,1.08,15.07-4.13,22.68,1.98,.83-.12,1.59-.8,2.05-2.17Z"/>
    <path class="cls-4" d="M242.46,195.71c-.01,2.62,1.46,5.91,3.27,7.23,8.21,5.44,15.62-2.43,23.84-3.08,2.14-.65,4.76,1.82,5.92,1,6.1-6.07-3.1-11.68-9.18-11.69-7.24,.81-13.5,7.86-22.42,3.92-.77,.32-1.33,1.18-1.42,2.62Z"/>
    <path class="cls-4" d="M244.88,219.23c1.79,2.43,5.42,4.47,8,4.45,11.35-.61,12.8-13.01,19.97-19.26,1.53-2.08,5.66-1.59,6.17-3.15,1.47-9.82-10.91-8.69-16.55-4.51-6.15,5.73-7.09,16.57-18.08,19.06-.49,.83-.42,2.01,.49,3.41Z"/>
    <path class="cls-4" d="M235.15,184.72c-2.43,.96-4.94,3.55-5.49,5.72-2,9.64,8.07,13.59,11.73,20.99,1.4,1.74,.09,5.1,1.27,5.86,7.9,3.4,9.69-7.22,7.43-12.87-3.44-6.42-12.32-9.6-11.98-19.36-.59-.59-1.59-.79-2.96-.34Z"/>
    <path class="cls-4" d="M278.36,204.88c2.53,.66,6.09,.04,7.81-1.38,7.3-6.61,1.49-15.74,2.9-23.87-.11-2.23,2.94-4.17,2.43-5.49-4.38-7.4-12.08,.12-13.59,6.01-1,7.21,4.29,15.02-1.74,22.7,.12,.83,.82,1.58,2.19,2.02Z"/>
    <path class="cls-4" d="M301.75,208.33c2.8-1.13,5.67-4.15,6.28-6.65,2.21-11.15-9.45-15.61-13.74-24.11-1.64-2-.15-5.88-1.53-6.75-9.15-3.85-11.11,8.43-8.45,14.93,4.03,7.37,14.31,10.96,14.01,22.22,.68,.68,1.85,.9,3.42,.36Z"/>
    <path class="cls-4" d="M269.81,197.36c-1.49,2.15-2.14,5.7-1.4,7.81,3.69,9.13,14.26,6.84,21.4,10.96,2.13,.67,2.9,4.2,4.31,4.17,8.46-1.55,4.06-11.38-.95-14.84-6.42-3.43-15.58-1.16-20.7-9.47-.82-.17-1.77,.22-2.66,1.36Z"/>
    <path class="cls-4" d="M309.97,194.93c2.53,.66,6.09,.04,7.81-1.38,7.3-6.61,1.49-15.74,2.9-23.87-.11-2.23,2.94-4.17,2.43-5.49-4.38-7.4-12.08,.12-13.59,6.01-1,7.21,4.29,15.02-1.74,22.7,.12,.83,.82,1.58,2.19,2.02Z"/>
    <path class="cls-4" d="M333.36,198.39c2.8-1.13,5.67-4.15,6.28-6.65,2.21-11.15-9.45-15.61-13.74-24.11-1.64-2-.15-5.88-1.53-6.75-9.15-3.85-11.11,8.43-8.45,14.93,4.03,7.37,14.31,10.96,14.01,22.22,.68,.68,1.85,.9,3.42,.36Z"/>
    <path class="cls-4" d="M360.12,208.42c2.09-2.18,3.48-6.1,3.02-8.64-2.53-11.08-15-10.4-22.38-16.4-2.31-1.16-2.54-5.31-4.15-5.54-9.93,.22-6.7,12.23-1.63,17.08,6.69,5.08,17.54,4.17,21.86,14.57,.9,.34,2.05,.07,3.27-1.06Z"/>
    <path class="cls-4" d="M297.52,199.31c.33,2.6,2.22,5.67,4.19,6.74,8.85,4.31,15.17-4.47,23.23-6.19,2.03-.93,4.96,1.18,6,.21,5.24-6.82-4.61-11.17-10.64-10.38-7.07,1.75-12.34,9.57-21.71,6.83-.72,.42-1.16,1.35-1.06,2.79Z"/>
    <path class="cls-4" d="M437.05,179.69c.48-2.57-.39-6.07-1.93-7.69-7.12-6.81-15.81-.37-24.01-1.2-2.22,.26-4.37-2.63-5.65-2.03-7.07,4.89,.98,12.04,6.97,13.13,7.26,.49,14.68-5.35,22.76,.12,.82-.18,1.52-.93,1.86-2.33Z"/>
    <path class="cls-4" d="M438.83,156.11c-1.33-2.71-4.54-5.36-7.08-5.8-11.28-1.41-14.9,10.53-23.07,15.42-1.88,1.77-5.86,.57-6.63,2-3.18,9.4,9.2,10.48,15.49,7.37,7.06-4.55,9.91-15.06,21.17-15.56,.63-.73,.77-1.91,.12-3.44Z"/>
    <path class="cls-4" d="M449.65,173.83c2.57-.52,5.49-2.62,6.42-4.66,3.67-9.14-5.54-14.81-7.82-22.73-1.07-1.96,.82-5.03-.22-6-7.18-4.74-10.81,5.39-9.6,11.35,2.25,6.92,10.43,11.63,8.36,21.17,.47,.69,1.43,1.06,2.86,.86Z"/>
    <path class="cls-4" d="M403.34,164.31c-2.38-1.1-5.98-1.12-7.93-.02-8.35,5.22-4.26,15.23-7.08,22.97-.29,2.22-3.63,3.58-3.36,4.97,3,8.06,11.91,2.02,14.45-3.51,2.26-6.92-1.56-15.54,5.73-22.03,.02-.84-.53-1.7-1.8-2.38Z"/>
    <path class="cls-4" d="M380.93,156.77c-2.96,.62-6.31,3.08-7.36,5.44-4.15,10.58,6.53,17.04,9.25,26.16,1.26,2.25-.9,5.82,.31,6.92,8.33,5.41,12.43-6.33,10.97-13.2-2.66-7.97-12.14-13.32-9.85-24.35-.55-.79-1.66-1.21-3.3-.97Z"/>
    <path class="cls-4" d="M410.43,173.22c1.85-1.85,3.12-5.23,2.76-7.43-2.01-9.64-12.82-9.26-19.12-14.58-1.98-1.04-2.11-4.64-3.5-4.87-8.6,.03-6.01,10.48-1.69,14.77,5.71,4.51,15.13,3.9,18.7,12.98,.78,.31,1.78,.09,2.85-.87Z"/>
    <path class="cls-4" d="M370.47,168.5c-2.38-1.1-5.98-1.12-7.93-.02-8.35,5.22-4.26,15.23-7.08,22.97-.29,2.22-3.63,3.58-3.36,4.97,3,8.06,11.91,2.02,14.45-3.51,2.26-6.92-1.56-15.54,5.73-22.03,.02-.84-.53-1.7-1.8-2.38Z"/>
    <path class="cls-4" d="M348.06,160.95c-2.96,.62-6.31,3.08-7.36,5.44-4.15,10.58,6.53,17.04,9.25,26.16,1.26,2.25-.9,5.82,.31,6.92,8.33,5.41,12.43-6.33,10.97-13.2-2.66-7.97-12.14-13.32-9.85-24.35-.55-.79-1.66-1.21-3.3-.97Z"/>
    <path class="cls-4" d="M323.51,146.34c-2.45,1.77-4.51,5.39-4.5,7.97,.53,11.35,12.92,12.89,19.12,20.11,2.07,1.55,1.55,5.68,3.1,6.19,9.81,1.54,8.76-10.85,4.63-16.52-5.68-6.19-16.52-7.21-18.93-18.21-.83-.5-2.01-.43-3.41,.47Z"/>
    <path class="cls-4" d="M383.5,166.4c.13-2.61-1.19-5.97-2.93-7.37-7.95-5.81-15.72,1.71-23.96,1.97-2.17,.55-4.68-2.04-5.86-1.27-6.37,5.78,2.56,11.81,8.63,12.1,7.26-.47,13.84-7.23,22.58-2.88,.78-.29,1.38-1.12,1.54-2.56Z"/>
  </g>
  <g id="Dessus">
    <path class="cls-1" d="M215.49,5.64c152.01-18.12,250.43,119.19,244,136-13,34-412,86-452,45C-11.48,167.2,64.49,23.64,215.49,5.64Z"/>
    <path class="cls-6" d="M367.99,55.14C293.99-2.86,121.38,4.06,37.99,129.14,0,186.14,93.99,97.7,202.99,84.92s206,29.22,233,39.22c0,0-19.76-31.19-68-69Z"/>
  </g>
</svg>