<?xml version="1.0" encoding="UTF-8"?>
<svg id="Calque_2" data-name="Calque 2" xmlns="http://www.w3.org/2000/svg" viewBox="0 0 465.65 310.23">
  <defs>
    <style>
      .cls-1 {
        fill: #c9c76b;
        stroke-width: 8px;
      }

      .cls-1, .cls-2, .cls-3, .cls-4, .cls-5 {
        stroke-miterlimit: 10;
      }

      .cls-1, .cls-4 {
        stroke: #ad8249;
      }

      .cls-2 {
        fill: #f7d27f;
        stroke: #ceaa51;
      }

      .cls-2, .cls-3 {
        stroke-width: 17px;
      }

      .cls-3 {
        fill: #dd9292;
        stroke: #d63c3c;
      }

      .cls-4 {
        fill: #ad8249;
      }

      .cls-4, .cls-5 {
        stroke-width: 5px;
      }

      .cls-5 {
        fill: #825b48;
        stroke: #4c4025;
      }

      .cls-6 {
        fill: #e0dc90;
      }
    </style>
  </defs>
  <g id="Dessous">
    <path class="cls-4" d="M17.69,200.37c-19.95,26.74,108,125.99,242.8,104.27,144.53-23.29,216.35-141.74,199-163-17.35-21.26-412.48,19.42-441.8,58.73Z"/>
  </g>
  <g id="Garniture">
    <path id="Sauce_fromage" data-name="Sauce/fromage" class="cls-2" d="M8.5,191.94c0-32.65,89.6-18.46,97.04-9.12,7.44,9.35,38.15,3.45,50.87-4.78,12.72-8.23,60.71-15.29,71.58-9.51,10.87,5.78,50.59-.51,71.53-6.72,20.95-6.21,35.57-21.59,55.83-14.48,20.25,7.11,11.88,10.41,27.28,5.19,15.4-5.21,69.43-13.85,73.86,15.13,4.43,28.99-13.93,123.46-41,123.99-27.07,.53-1-62-36.8-72.21-21.97-6.27-47.2,27.21-74.32,32.09-27.22,4.9-44.56-20.14-66.85-18.98-40.03,2.1-50.03,29.1-92.73,30.95-29.72,1.29-45.3-23.86-80.56-23.57-13.04,.11-55.73-15.86-55.73-48Z"/>
    <g id="Tomates">
      <ellipse class="cls-3" cx="98.99" cy="205.64" rx="40" ry="81.5" transform="translate(-124.73 250.78) rotate(-75.7)"/>
      <ellipse class="cls-3" cx="233.99" cy="191.64" rx="81.5" ry="40" transform="translate(-32.28 48.2) rotate(-11.01)"/>
      <ellipse class="cls-3" cx="365.99" cy="178.64" rx="40" ry="81.5" transform="translate(152.44 525.43) rotate(-84.39)"/>
    </g>
    <g id="Rillettes">
      <path class="cls-5" d="M59.09,203.58s-4.02-1.59-9.02-1.38l-9.99,.42c-2.56-1.39-12.64-2.98-10.41-9.57,0,0-.21-5,2.96-11.69,6.67-9.23,3.01-25.1,13.83-29.55,5.91-2.25,6.37,8.74,10.35,13.73,2.47,1.54,4.89,3.05,7.12,4.74,4.46,3.38,8.13,7.48,10.84,12.37,3.21,4.87-.62,9.03-5.17,11.41-1.8,1.62-2.66,4.88-5.04,7.94-1.47,1.94-3.41,2.62-5.48,1.58Z"/>
      <path class="cls-5" d="M68.12,191.94s3.33-2.77,5.54-7.25l4.42-8.97c2.45-1.58,8.67-9.66,13.39-4.54,0,0,4.48,2.21,8.83,8.2,4.91,10.28,20.58,14.67,19.3,26.3-.86,6.27-10.73,1.4-17.02,2.5-2.53,1.43-5.02,2.83-7.57,3.98-5.1,2.29-10.46,3.55-16.05,3.58-5.81,.48-7.63-4.88-7.54-10.01-.56-2.35-3.01-4.68-4.55-8.23-1-2.22-.66-4.25,1.24-5.57Z"/>
      <path class="cls-5" d="M137.89,223.92s-2.36-3.63-6.55-6.35l-8.39-5.44c-1.28-2.62-8.58-9.74-2.95-13.83,0,0,2.72-4.19,9.18-7.81,10.79-3.67,16.98-18.72,28.38-16.09,6.12,1.59,.14,10.82,.5,17.19,1.12,2.68,2.22,5.32,3.06,7.99,1.68,5.34,2.3,10.81,1.68,16.36-.2,5.83-5.74,7.01-10.82,6.32-2.4,.28-5,2.44-8.7,3.56-2.32,.73-4.29,.16-5.39-1.89Z"/>
      <path class="cls-5" d="M212.18,208.93s-2.54,3.51-3.57,8.4l-2.06,9.78c-1.98,2.14-6,11.51-11.85,7.72,0,0-4.89-1.03-10.59-5.76-7.3-8.75-23.58-9.11-25.22-20.7-.72-6.28,10.04-4.01,15.86-6.64,2.1-2.01,4.16-3.99,6.35-5.73,4.38-3.48,9.26-6.03,14.66-7.45,5.51-1.9,8.6,2.84,9.78,7.83,1.12,2.14,4.07,3.78,6.45,6.84,1.52,1.91,1.69,3.95,.18,5.7Z"/>
      <path class="cls-5" d="M203.12,183.9s3.67-2.29,6.47-6.44,5.59-8.29,5.59-8.29c2.64-1.23,9.89-8.4,13.88-2.69,0,0,4.14,2.8,7.65,9.32,3.47,10.85,18.41,17.31,15.57,28.67-1.7,6.09-10.82-.06-17.2,.18-2.7,1.08-5.36,2.13-8.04,2.92-5.37,1.58-10.85,2.11-16.39,1.38-5.82-.31-6.9-5.86-6.12-10.93-.24-2.4-2.35-5.04-3.4-8.77-.69-2.34-.08-4.3,1.98-5.35Z"/>
      <path class="cls-5" d="M281.37,205.07s-4.25,.82-8.35,3.68l-8.2,5.72c-2.91,.2-12.26,4.28-13.92-2.49,0,0-2.86-4.1-3.78-11.45,.67-11.37-10.94-22.78-4.2-32.36,3.78-5.07,10.07,3.95,16.11,6.02,2.91-.03,5.76-.05,8.55,.18,5.57,.46,10.88,1.94,15.79,4.62,5.32,2.39,4.33,7.96,1.77,12.4-.65,2.33,.38,5.55,.02,9.4-.2,2.43-1.47,4.04-3.78,4.28Z"/>
      <path class="cls-5" d="M316.04,167.32s.73,4.27,3.51,8.42l5.55,8.32c.14,2.91,4.03,12.34-2.77,13.87,0,0-4.16,2.78-11.52,3.55-11.36-.9-23,10.48-32.43,3.55-4.99-3.88,4.15-9.99,6.35-15.99,.03-2.91,.06-5.76,.35-8.55,.57-5.56,2.16-10.84,4.93-15.69,2.49-5.27,8.04-4.16,12.44-1.52,2.31,.69,5.55-.27,9.4,.17,2.42,.25,4.01,1.55,4.2,3.86Z"/>
      <path class="cls-5" d="M319.14,166.83s4.26-.78,8.38-3.61l8.25-5.65c2.91-.18,12.29-4.18,13.9,2.6,0,0,2.83,4.12,3.69,11.48-.76,11.37,10.76,22.87,3.95,32.39-3.82,5.04-10.04-4.03-16.06-6.15-2.91,0-5.76,0-8.55-.24-5.57-.5-10.86-2.03-15.75-4.74-5.3-2.43-4.26-7.99-1.67-12.42,.66-2.32-.33-5.55,.06-9.4,.22-2.43,1.5-4.03,3.81-4.25Z"/>
      <path class="cls-5" d="M383.15,193.8s-4.29-.56-9.08,.87l-9.58,2.85c-2.82-.72-12.98,.21-12.44-6.73,0,0-1.43-4.79,0-12.06,4.2-10.59-3.24-25.07,6.16-32.04,5.18-3.63,8.32,6.91,13.41,10.78,2.77,.88,5.49,1.76,8.06,2.85,5.15,2.18,9.72,5.26,13.54,9.34,4.3,3.94,1.61,8.91-2.21,12.33-1.34,2.01-1.38,5.39-2.94,8.93-.95,2.24-2.66,3.37-4.93,2.88Z"/>
      <path class="cls-5" d="M421.1,134.28s.65,4.28,3.34,8.49c2.7,4.21,5.39,8.42,5.39,8.42,.08,2.91,3.79,12.41-3.03,13.81,0,0-4.21,2.7-11.59,3.32-11.34-1.11-23.2,10.04-32.5,2.93-4.92-3.98,4.35-9.91,6.65-15.86,.08-2.91,.17-5.76,.51-8.54,.68-5.55,2.37-10.79,5.23-15.59,2.59-5.22,8.12-4.01,12.46-1.28,2.3,.74,5.56-.16,9.4,.35,2.42,.3,3.98,1.63,4.13,3.94Z"/>
    </g>
  </g>
  <g id="Dessus">
    <path class="cls-1" d="M215.49,5.64c152.01-18.12,250.43,119.19,244,136-13,34-412,86-452,45C-11.48,167.2,64.49,23.64,215.49,5.64Z"/>
    <path class="cls-6" d="M367.99,55.14C293.99-2.86,121.38,4.06,37.99,129.14,0,186.14,93.99,97.7,202.99,84.92s206,29.22,233,39.22c0,0-19.76-31.19-68-69Z"/>
  </g>
</svg>