<?xml version="1.0" encoding="UTF-8"?>
<svg id="Calque_2" data-name="Calque 2" xmlns="http://www.w3.org/2000/svg" viewBox="0 0 465.65 310.23">
  <defs>
    <style>
      .cls-1 {
        fill: #c9c76b;
      }

      .cls-1, .cls-2, .cls-3, .cls-4, .cls-5 {
        stroke-miterlimit: 10;
      }

      .cls-1, .cls-3 {
        stroke-width: 8px;
      }

      .cls-1, .cls-4 {
        stroke: #ad8249;
      }

      .cls-2 {
        fill: #f7d27f;
        stroke: #ceaa51;
        stroke-width: 17px;
      }

      .cls-3 {
        fill: #e2cdb5;
        stroke: #ddb897;
      }

      .cls-4 {
        fill: #ad8249;
      }

      .cls-4, .cls-5 {
        stroke-width: 5px;
      }

      .cls-5 {
        fill: #825b48;
        stroke: #4c4025;
      }

      .cls-6 {
        fill: #e0dc90;
      }
    </style>
  </defs>
  <g id="Dessous">
    <path class="cls-4" d="M17.69,200.37c-19.95,26.74,108,125.99,242.8,104.27,144.53-23.29,216.35-141.74,199-163-17.35-21.26-412.48,19.42-441.8,58.73Z"/>
  </g>
  <g id="Garniture">
    <path id="Sauce_fromage" data-name="Sauce/fromage" class="cls-2" d="M8.5,191.94c0-32.65,89.6-18.46,97.04-9.12,7.44,9.35,38.15,3.45,50.87-4.78,12.72-8.23,60.71-15.29,71.58-9.51,10.87,5.78,50.59-.51,71.53-6.72,20.95-6.21,35.57-21.59,55.83-14.48,20.25,7.11,11.88,10.41,27.28,5.19,15.4-5.21,69.43-13.85,73.86,15.13,4.43,28.99-13.93,123.46-41,123.99-27.07,.53-1-62-36.8-72.21-21.97-6.27-47.2,27.21-74.32,32.09-27.22,4.9-44.56-20.14-66.85-18.98-40.03,2.1-50.03,29.1-92.73,30.95-29.72,1.29-45.3-23.86-80.56-23.57-13.04,.11-55.73-15.86-55.73-48Z"/>
    <g id="Mogette">
      <path class="cls-3" d="M29.13,197c-.77,2.5-.31,6.08,1.04,7.86,6.29,7.58,15.66,2.18,23.72,3.93,2.24,0,4.04,3.11,5.38,2.66,7.59-4.05,.4-12.08-5.42-13.84-7.16-1.31-15.19,3.64-22.6-2.72-.83,.09-1.61,.75-2.12,2.1Z"/>
      <path class="cls-3" d="M24.66,220.22c1.01,2.85,3.9,5.84,6.38,6.57,11.04,2.69,16.01-8.76,24.68-12.68,2.07-1.55,5.88,.11,6.81-1.23,4.24-8.98-7.94-11.46-14.55-9.09-7.54,3.71-11.57,13.82-22.81,13.04-.71,.65-.98,1.8-.51,3.4Z"/>
      <path class="cls-3" d="M25.3,184.37c-2.61,.22-5.76,1.98-6.91,3.89-4.69,8.66,3.81,15.35,5.17,23.48,.84,2.07-1.39,4.91-.47,5.98,6.59,5.53,11.36-4.12,10.83-10.18-1.44-7.14-9.03-12.75-5.89-21.99-.39-.74-1.3-1.22-2.74-1.18Z"/>
      <path class="cls-3" d="M60.86,216.13c2.24,1.36,5.82,1.8,7.88,.93,8.9-4.23,5.97-14.64,9.66-22.01,.54-2.17,4.01-3.14,3.91-4.55-2.06-8.35-11.6-3.37-14.75,1.84-3.04,6.62-.22,15.62-8.21,21.23-.12,.83,.33,1.75,1.52,2.57Z"/>
      <path class="cls-3" d="M82.26,226.19c3.01-.28,6.62-2.34,7.94-4.56,5.33-10.04-4.54-17.67-6.2-27.04-.99-2.38,1.56-5.68,.48-6.91-7.65-6.32-13.07,4.87-12.4,11.86,1.74,8.22,10.54,14.62,7.01,25.32,.46,.85,1.51,1.4,3.17,1.34Z"/>
      <path class="cls-3" d="M54.84,206.47c-2.05,1.63-3.69,4.84-3.59,7.07,.89,9.81,11.68,10.66,17.32,16.67,1.85,1.26,1.56,4.85,2.92,5.24,8.55,.95,7.17-9.73,3.37-14.48-5.16-5.14-14.58-5.6-17.09-15.04-.74-.4-1.75-.3-2.93,.54Z"/>
      <path class="cls-3" d="M93.99,215.73c2.24,1.36,5.82,1.8,7.88,.93,8.9-4.23,5.97-14.64,9.66-22.01,.54-2.17,4.01-3.14,3.91-4.55-2.06-8.35-11.6-3.37-14.75,1.84-3.04,6.62-.22,15.62-8.21,21.23-.12,.83,.33,1.75,1.52,2.57Z"/>
      <path class="cls-3" d="M115.39,225.79c3.01-.28,6.62-2.34,7.94-4.56,5.33-10.04-4.54-17.67-6.2-27.04-.99-2.38,1.56-5.68,.48-6.91-7.65-6.32-13.07,4.87-12.4,11.86,1.74,8.22,10.54,14.62,7.01,25.32,.46,.85,1.51,1.4,3.17,1.34Z"/>
      <path class="cls-3" d="M138.12,243.11c2.63-1.48,5.09-4.84,5.39-7.4,.77-11.34-11.36-14.28-16.7-22.16-1.88-1.77-.9-5.82-2.38-6.5-9.57-2.65-9.94,9.78-6.48,15.88,4.94,6.8,15.59,9.05,16.73,20.26,.77,.59,1.95,.66,3.44-.07Z"/>
      <path class="cls-3" d="M80.81,216.33c-.43,2.58,.5,6.07,2.07,7.66,7.23,6.68,15.81,.1,24.03,.78,2.22-.3,4.41,2.56,5.68,1.93,6.99-5.02-1.19-12.02-7.2-13.01-7.27-.36-14.58,5.6-22.76,.28-.81,.2-1.5,.95-1.82,2.36Z"/>
      <path class="cls-3" d="M220.07,237.8c1.2-2.33,1.38-5.93,.37-7.92-4.85-8.57-15.03-4.92-22.65-8.07-2.2-.39-3.42-3.78-4.82-3.57-8.19,2.65-2.53,11.81,2.88,14.58,6.81,2.56,15.6-.89,21.76,6.68,.83,.06,1.72-.45,2.46-1.69Z"/>
      <path class="cls-3" d="M228.57,215.73c-.49-2.98-2.8-6.44-5.11-7.59-10.39-4.61-17.3,5.79-26.53,8.11-2.31,1.16-5.77-1.15-6.92,0-5.76,8.08,5.78,12.69,12.71,11.53,8.08-2.32,13.84-11.56,24.76-8.79,.81-.52,1.28-1.6,1.11-3.26Z"/>
      <path class="cls-3" d="M233.82,235.82c2.61,.25,6.02-.93,7.49-2.61,6.15-7.69-1.03-15.78-.93-24.02-.46-2.19,2.24-4.58,1.52-5.8-5.5-6.61-11.91,2.04-12.46,8.1,.16,7.28,6.63,14.15,1.9,22.68,.25,.8,1.06,1.43,2.49,1.65Z"/>
      <path class="cls-3" d="M192.23,213.34c-1.96-1.74-5.4-2.8-7.59-2.31-9.5,2.58-8.47,13.35-13.41,19.95-.92,2.04-4.51,2.38-4.65,3.79,.54,8.59,10.82,5.37,14.84,.8,4.16-5.97,2.99-15.33,11.84-19.44,.26-.79-.01-1.78-1.04-2.8Z"/>
      <path class="cls-3" d="M172.94,199.66c-3.01-.26-6.93,1.13-8.62,3.08-7.03,8.93,1.34,18.2,1.31,27.71,.55,2.52-2.54,5.31-1.7,6.71,6.41,7.58,13.72-2.48,14.31-9.47-.25-8.4-7.79-16.26-2.41-26.16-.3-.92-1.24-1.64-2.89-1.88Z"/>
      <path class="cls-3" d="M196.44,223.92c2.31-1.24,4.49-4.11,4.79-6.32,.86-9.81-9.6-12.56-14.1-19.48-1.6-1.57-.68-5.05-1.95-5.67-8.25-2.45-8.78,8.3-5.88,13.65,4.17,5.97,13.36,8.1,14.16,17.83,.65,.52,1.67,.6,2.98,0Z"/>
      <path class="cls-3" d="M159.55,207.87c-1.96-1.74-5.4-2.8-7.59-2.31-9.5,2.58-8.47,13.35-13.41,19.95-.92,2.04-4.51,2.38-4.65,3.79,.54,8.59,10.82,5.37,14.84,.8,4.16-5.97,2.99-15.33,11.84-19.44,.26-.79-.01-1.78-1.04-2.8Z"/>
      <path class="cls-3" d="M140.26,194.18c-3.01-.26-6.93,1.13-8.62,3.08-7.03,8.93,1.34,18.2,1.31,27.71,.55,2.52-2.54,5.31-1.7,6.71,6.41,7.58,13.72-2.48,14.31-9.47-.25-8.4-7.79-16.26-2.41-26.16-.3-.92-1.24-1.64-2.89-1.88Z"/>
      <path class="cls-3" d="M120.97,173.11c-2.85,.99-5.87,3.86-6.61,6.33-2.77,11.02,8.65,16.07,12.51,24.77,1.53,2.08-.15,5.88,1.19,6.82,8.95,4.3,11.52-7.86,9.2-14.48-3.66-7.56-13.74-11.67-12.87-22.9-.65-.71-1.8-.99-3.4-.54Z"/>
      <path class="cls-3" d="M172.62,209.62c.88-2.46,.59-6.06-.68-7.9-5.93-7.86-15.54-2.89-23.51-5.02-2.23-.09-3.89-3.3-5.25-2.91-7.77,3.7-.96,12.05,4.78,14.08,7.09,1.64,15.34-2.93,22.45,3.76,.84-.05,1.65-.67,2.21-2Z"/>
      <path class="cls-3" d="M234.07,206.8c-.22,2.61,.99,6.01,2.69,7.46,7.76,6.07,15.77-1.2,24.01-1.2,2.18-.48,4.61,2.19,5.82,1.46,6.55-5.57-2.17-11.89-8.24-12.38-7.28,.24-14.07,6.78-22.66,2.15-.79,.26-1.42,1.07-1.62,2.5Z"/>
      <path class="cls-3" d="M234.64,230.44c1.59,2.57,5.05,4.88,7.63,5.06,11.36,.28,13.78-11.96,21.42-17.63,1.69-1.95,5.77-1.15,6.4-2.65,2.23-9.67-10.19-9.51-16.15-5.79-6.58,5.23-8.37,15.97-19.52,17.58-.55,.79-.57,1.97,.22,3.44Z"/>
      <path class="cls-3" d="M227.64,195.27c-2.5,.77-5.2,3.16-5.93,5.27-2.75,9.46,6.98,14.19,10.05,21.84,1.26,1.85-.31,5.09,.81,5.94,7.61,4.01,10.22-6.44,8.42-12.25-2.93-6.67-11.53-10.54-10.42-20.24-.54-.64-1.53-.92-2.93-.57Z"/>
      <path class="cls-3" d="M269.14,218.75c2.47,.86,6.06,.52,7.89-.76,7.79-6.02,2.72-15.57,4.76-23.56,.07-2.23,3.25-3.93,2.85-5.28-3.79-7.72-12.05-.82-14.02,4.93-1.56,7.11,3.1,15.31-3.51,22.49,.06,.83,.69,1.64,2.03,2.19Z"/>
      <path class="cls-3" d="M292.19,224.03c2.88-.91,5.98-3.69,6.79-6.14,3.08-10.94-8.2-16.3-11.81-25.11-1.47-2.12,.31-5.88-.99-6.85-8.82-4.55-11.74,7.53-9.6,14.22,3.44,7.66,13.41,12.05,12.23,23.25,.63,.73,1.77,1.04,3.38,.63Z"/>
      <path class="cls-3" d="M261.2,210.59c-1.66,2.03-2.58,5.51-2.01,7.67,2.96,9.39,13.68,7.93,20.47,12.61,2.07,.84,2.56,4.41,3.97,4.5,8.56-.89,4.94-11.03,.22-14.86-6.13-3.92-15.44-2.38-19.89-11.06-.8-.23-1.78,.08-2.75,1.15Z"/>
      <path class="cls-3" d="M301.43,211.32c2.47,.86,6.06,.52,7.89-.76,7.79-6.02,2.72-15.57,4.76-23.56,.07-2.23,3.25-3.93,2.85-5.28-3.79-7.72-12.05-.82-14.02,4.93-1.56,7.11,3.1,15.31-3.51,22.49,.06,.83,.69,1.64,2.03,2.19Z"/>
      <path class="cls-3" d="M324.48,216.6c2.88-.91,5.98-3.69,6.79-6.14,3.08-10.94-8.2-16.3-11.81-25.11-1.47-2.12,.31-5.88-.99-6.85-8.82-4.55-11.74,7.53-9.6,14.22,3.44,7.66,13.41,12.05,12.23,23.25,.63,.73,1.77,1.04,3.38,.63Z"/>
      <path class="cls-3" d="M350.36,228.7c2.26-2.01,3.95-5.81,3.69-8.38-1.65-11.25-14.13-11.54-21.02-18.11-2.21-1.33-2.11-5.49-3.7-5.85-9.91-.55-7.64,11.67-2.96,16.9,6.27,5.59,17.16,5.53,20.65,16.24,.87,.41,2.04,.23,3.35-.8Z"/>
      <path class="cls-3" d="M288.68,214.7c.13,2.61,1.77,5.82,3.65,7.04,8.49,4.99,15.47-3.27,23.65-4.35,2.1-.77,4.85,1.56,5.96,.68,5.76-6.39-3.72-11.5-9.8-11.18-7.18,1.19-13.06,8.57-22.18,5.11-.75,.37-1.26,1.25-1.28,2.7Z"/>
      <path class="cls-3" d="M429.32,206.09c.68-2.53,.09-6.09-1.32-7.82-6.56-7.35-15.73-1.61-23.84-3.08-2.23,.09-4.15-2.97-5.47-2.47-7.44,4.32,.03,12.08,5.91,13.64,7.2,1.06,15.05-4.18,22.68,1.9,.83-.12,1.59-.81,2.04-2.18Z"/>
      <path class="cls-3" d="M432.94,182.73c-1.11-2.81-4.11-5.7-6.61-6.33-11.13-2.29-15.68,9.33-24.21,13.56-2.01,1.62-5.88,.1-6.76,1.48-3.91,9.12,8.35,11.17,14.87,8.56,7.4-3.98,11.06-14.23,22.32-13.85,.69-.68,.91-1.84,.39-3.42Z"/>
      <path class="cls-3" d="M442.33,201.23c2.6-.31,5.68-2.18,6.77-4.14,4.38-8.82-4.36-15.2-6.02-23.28-.91-2.04,1.21-4.95,.25-5.99-6.78-5.29-11.2,4.53-10.46,10.57,1.7,7.08,9.48,12.41,6.67,21.76,.42,.72,1.34,1.17,2.78,1.08Z"/>
      <path class="cls-3" d="M396.92,188.11c-2.28-1.28-5.88-1.59-7.9-.65-8.74,4.54-5.44,14.85-8.86,22.35-.46,2.19-3.9,3.29-3.74,4.69,2.36,8.27,11.72,2.95,14.68-2.37,2.8-6.72-.34-15.62,7.44-21.51,.09-.83-.39-1.74-1.61-2.51Z"/>
      <path class="cls-3" d="M375.16,178.83c-3,.39-6.54,2.57-7.77,4.84-4.97,10.22,5.18,17.5,7.17,26.8,1.07,2.35-1.35,5.73-.24,6.92,7.88,6.04,12.88-5.33,11.97-12.29-2.03-8.15-11.06-14.23-7.91-25.05-.49-.83-1.56-1.34-3.22-1.22Z"/>
      <path class="cls-3" d="M403.28,197.55c1.99-1.7,3.52-4.97,3.34-7.2-1.25-9.77-12.05-10.23-17.91-16.04-1.89-1.19-1.74-4.79-3.11-5.13-8.58-.64-6.81,9.98-2.85,14.59,5.34,4.95,14.77,5.07,17.62,14.41,.75,.37,1.76,.23,2.91-.64Z"/>
      <path class="cls-3" d="M363.82,189.71c-2.28-1.28-5.88-1.59-7.9-.65-8.74,4.54-5.44,14.85-8.86,22.35-.46,2.19-3.9,3.29-3.74,4.69,2.36,8.27,11.72,2.95,14.68-2.37,2.8-6.72-.34-15.62,7.44-21.51,.09-.83-.39-1.74-1.61-2.51Z"/>
      <path class="cls-3" d="M342.07,180.43c-3,.39-6.54,2.57-7.77,4.84-4.97,10.22,5.18,17.5,7.17,26.8,1.07,2.35-1.35,5.73-.24,6.92,7.88,6.04,12.88-5.33,11.97-12.29-2.03-8.15-11.06-14.23-7.91-25.05-.49-.83-1.56-1.34-3.22-1.22Z"/>
      <path class="cls-3" d="M318.74,163.94c-2.58,1.57-4.92,5.02-5.12,7.59-.36,11.36,11.87,13.86,17.48,21.55,1.94,1.7,1.1,5.78,2.61,6.41,9.66,2.3,9.59-10.13,5.91-16.11-5.18-6.61-15.91-8.48-17.45-19.64-.79-.56-1.97-.59-3.44,.2Z"/>
      <path class="cls-3" d="M376.97,188.64c.34-2.6-.71-6.04-2.34-7.58-7.47-6.42-15.8,.47-24.04,.09-2.2,.38-4.5-2.4-5.75-1.73-6.8,5.27,1.62,11.97,7.66,12.74,7.28,.1,14.37-6.13,22.74-1.1,.81-.23,1.47-1.01,1.73-2.43Z"/>
    </g>
    <g id="Rillettes">
      <path class="cls-5" d="M59.09,203.58s-4.02-1.59-9.02-1.38l-9.99,.42c-2.56-1.39-12.64-2.98-10.41-9.57,0,0-.21-5,2.96-11.69,6.67-9.23,3.01-25.1,13.83-29.55,5.91-2.25,6.37,8.74,10.35,13.73,2.47,1.54,4.89,3.05,7.12,4.74,4.46,3.38,8.13,7.48,10.84,12.37,3.21,4.87-.62,9.03-5.17,11.41-1.8,1.62-2.66,4.88-5.04,7.94-1.47,1.94-3.41,2.62-5.48,1.58Z"/>
      <path class="cls-5" d="M68.12,191.94s3.33-2.77,5.54-7.25l4.42-8.97c2.45-1.58,8.67-9.66,13.39-4.54,0,0,4.48,2.21,8.83,8.2,4.91,10.28,20.58,14.67,19.3,26.3-.86,6.27-10.73,1.4-17.02,2.5-2.53,1.43-5.02,2.83-7.57,3.98-5.1,2.29-10.46,3.55-16.05,3.58-5.81,.48-7.63-4.88-7.54-10.01-.56-2.35-3.01-4.68-4.55-8.23-1-2.22-.66-4.25,1.24-5.57Z"/>
      <path class="cls-5" d="M137.89,223.92s-2.36-3.63-6.55-6.35l-8.39-5.44c-1.28-2.62-8.58-9.74-2.95-13.83,0,0,2.72-4.19,9.18-7.81,10.79-3.67,16.98-18.72,28.38-16.09,6.12,1.59,.14,10.82,.5,17.19,1.12,2.68,2.22,5.32,3.06,7.99,1.68,5.34,2.3,10.81,1.68,16.36-.2,5.83-5.74,7.01-10.82,6.32-2.4,.28-5,2.44-8.7,3.56-2.32,.73-4.29,.16-5.39-1.89Z"/>
      <path class="cls-5" d="M212.18,208.93s-2.54,3.51-3.57,8.4l-2.06,9.78c-1.98,2.14-6,11.51-11.85,7.72,0,0-4.89-1.03-10.59-5.76-7.3-8.75-23.58-9.11-25.22-20.7-.72-6.28,10.04-4.01,15.86-6.64,2.1-2.01,4.16-3.99,6.35-5.73,4.38-3.48,9.26-6.03,14.66-7.45,5.51-1.9,8.6,2.84,9.78,7.83,1.12,2.14,4.07,3.78,6.45,6.84,1.52,1.91,1.69,3.95,.18,5.7Z"/>
      <path class="cls-5" d="M203.12,183.9s3.67-2.29,6.47-6.44,5.59-8.29,5.59-8.29c2.64-1.23,9.89-8.4,13.88-2.69,0,0,4.14,2.8,7.65,9.32,3.47,10.85,18.41,17.31,15.57,28.67-1.7,6.09-10.82-.06-17.2,.18-2.7,1.08-5.36,2.13-8.04,2.92-5.37,1.58-10.85,2.11-16.39,1.38-5.82-.31-6.9-5.86-6.12-10.93-.24-2.4-2.35-5.04-3.4-8.77-.69-2.34-.08-4.3,1.98-5.35Z"/>
      <path class="cls-5" d="M281.37,205.07s-4.25,.82-8.35,3.68l-8.2,5.72c-2.91,.2-12.26,4.28-13.92-2.49,0,0-2.86-4.1-3.78-11.45,.67-11.37-10.94-22.78-4.2-32.36,3.78-5.07,10.07,3.95,16.11,6.02,2.91-.03,5.76-.05,8.55,.18,5.57,.46,10.88,1.94,15.79,4.62,5.32,2.39,4.33,7.96,1.77,12.4-.65,2.33,.38,5.55,.02,9.4-.2,2.43-1.47,4.04-3.78,4.28Z"/>
      <path class="cls-5" d="M316.04,167.32s.73,4.27,3.51,8.42l5.55,8.32c.14,2.91,4.03,12.34-2.77,13.87,0,0-4.16,2.78-11.52,3.55-11.36-.9-23,10.48-32.43,3.55-4.99-3.88,4.15-9.99,6.35-15.99,.03-2.91,.06-5.76,.35-8.55,.57-5.56,2.16-10.84,4.93-15.69,2.49-5.27,8.04-4.16,12.44-1.52,2.31,.69,5.55-.27,9.4,.17,2.42,.25,4.01,1.55,4.2,3.86Z"/>
      <path class="cls-5" d="M319.14,166.83s4.26-.78,8.38-3.61l8.25-5.65c2.91-.18,12.29-4.18,13.9,2.6,0,0,2.83,4.12,3.69,11.48-.76,11.37,10.76,22.87,3.95,32.39-3.82,5.04-10.04-4.03-16.06-6.15-2.91,0-5.76,0-8.55-.24-5.57-.5-10.86-2.03-15.75-4.74-5.3-2.43-4.26-7.99-1.67-12.42,.66-2.32-.33-5.55,.06-9.4,.22-2.43,1.5-4.03,3.81-4.25Z"/>
      <path class="cls-5" d="M383.15,193.8s-4.29-.56-9.08,.87l-9.58,2.85c-2.82-.72-12.98,.21-12.44-6.73,0,0-1.43-4.79,0-12.06,4.2-10.59-3.24-25.07,6.16-32.04,5.18-3.63,8.32,6.91,13.41,10.78,2.77,.88,5.49,1.76,8.06,2.85,5.15,2.18,9.72,5.26,13.54,9.34,4.3,3.94,1.61,8.91-2.21,12.33-1.34,2.01-1.38,5.39-2.94,8.93-.95,2.24-2.66,3.37-4.93,2.88Z"/>
      <path class="cls-5" d="M421.1,134.28s.65,4.28,3.34,8.49c2.7,4.21,5.39,8.42,5.39,8.42,.08,2.91,3.79,12.41-3.03,13.81,0,0-4.21,2.7-11.59,3.32-11.34-1.11-23.2,10.04-32.5,2.93-4.92-3.98,4.35-9.91,6.65-15.86,.08-2.91,.17-5.76,.51-8.54,.68-5.55,2.37-10.79,5.23-15.59,2.59-5.22,8.12-4.01,12.46-1.28,2.3,.74,5.56-.16,9.4,.35,2.42,.3,3.98,1.63,4.13,3.94Z"/>
    </g>
  </g>
  <g id="Dessus">
    <path class="cls-1" d="M215.49,5.64c152.01-18.12,250.43,119.19,244,136-13,34-412,86-452,45C-11.48,167.2,64.49,23.64,215.49,5.64Z"/>
    <path class="cls-6" d="M367.99,55.14C293.99-2.86,121.38,4.06,37.99,129.14,0,186.14,93.99,97.7,202.99,84.92s206,29.22,233,39.22c0,0-19.76-31.19-68-69Z"/>
  </g>
</svg>