<?xml version="1.0" encoding="UTF-8"?>
<svg id="Calque_2" data-name="Calque 2" xmlns="http://www.w3.org/2000/svg" viewBox="0 0 467.59 310.23">
  <defs>
    <style>
      .cls-1 {
        fill: #c9c76b;
      }

      .cls-1, .cls-2, .cls-3, .cls-4 {
        stroke-miterlimit: 10;
      }

      .cls-1, .cls-3 {
        stroke: #ad8249;
      }

      .cls-1, .cls-4 {
        stroke-width: 8px;
      }

      .cls-2 {
        fill: #f7d27f;
        stroke: #ceaa51;
        stroke-width: 17px;
      }

      .cls-3 {
        fill: #ad8249;
        stroke-width: 5px;
      }

      .cls-4 {
        fill: #936425;
        stroke: #a5815b;
      }

      .cls-5 {
        fill: #e0dc90;
      }
    </style>
  </defs>
  <g id="Dessous">
    <path class="cls-3" d="M17.69,200.37c-19.95,26.74,108,125.99,242.8,104.27,144.53-23.29,216.35-141.74,199-163-17.35-21.26-412.48,19.42-441.8,58.73Z"/>
  </g>
  <g id="Garniture">
    <path id="Sauce_fromage" data-name="Sauce/fromage" class="cls-2" d="M8.5,191.94c0-32.65,89.6-18.46,97.04-9.12,7.44,9.35,38.15,3.45,50.87-4.78,12.72-8.23,60.71-15.29,71.58-9.51,10.87,5.78,50.59-.51,71.53-6.72,20.95-6.21,35.57-21.59,55.83-14.48,20.25,7.11,11.88,10.41,27.28,5.19,15.4-5.21,69.43-13.85,73.86,15.13,4.43,28.99-13.93,123.46-41,123.99-27.07,.53-1-62-36.8-72.21-21.97-6.27-47.2,27.21-74.32,32.09-27.22,4.9-44.56-20.14-66.85-18.98-40.03,2.1-50.03,29.1-92.73,30.95-29.72,1.29-45.3-23.86-80.56-23.57-13.04,.11-55.73-15.86-55.73-48Z"/>
    <path class="cls-4" d="M236.65,235.85c-72.27-29.99-144.54-29.99-216.81,0-8.44,0-15.34-6.9-15.34-15.34h0c0-8.44,4.67-11.34,16.68-18.01,72.27-26.88,143.87-26.88,216.15,0,10.67,6.67,14.68,9.57,14.68,18.01h0c0,8.44-6.9,15.34-15.34,15.34Z"/>
    <path class="cls-4" d="M231.26,172.82c75.59,20.23,147.23,10.73,214.93-28.5,8.37-1.11,16.12,4.83,17.23,13.19h0c1.11,8.37-3.14,11.86-14.17,20.05-68.11,36.14-139.09,45.56-214.27,28.41-11.46-5.21-15.81-7.56-16.92-15.93h0c-1.11-8.37,4.83-16.12,13.19-17.23Z"/>
  </g>
  <g id="Dessus">
    <path class="cls-1" d="M215.49,5.64c152.01-18.12,250.43,119.19,244,136-13,34-412,86-452,45C-11.48,167.2,64.49,23.64,215.49,5.64Z"/>
    <path class="cls-5" d="M367.99,55.14C293.99-2.86,121.38,4.06,37.99,129.14,0,186.14,93.99,97.7,202.99,84.92s206,29.22,233,39.22c0,0-19.76-31.19-68-69Z"/>
  </g>
</svg>